<svg xmlns="http://www.w3.org/2000/svg" width="1600" height="900" viewBox="0 0 1600 900" data-rml-style="technical-svg-v1">
  <title>Robotic Manipulation Learning Concept Illustration</title>
  <desc>03 Geometric Perception and ICP. Correspondences estimate the rigid transform that aligns source and target points.</desc>
  <metadata>
    Canonical Colab concept asset. Generated by tools/generate_colab_svg_illustrations.py.
    Visual system: cool engineering paper, restrained robotics palette, shared line widths,
    large readable primitives, no photo textures, no random image-generation artifacts.
    Use the SVG as the source of truth; PNG exports are for notebook and static site display.
  </metadata>
  <defs>
    <filter id="soft-shadow" x="-10%" y="-10%" width="120%" height="120%">
      <feDropShadow dx="0" dy="10" stdDeviation="12" flood-color="#182232" flood-opacity="0.12"/>
    </filter>
  </defs>
  <rect x="0.0" y="0.0" width="1600.0" height="900.0" rx="0.0" fill="#f4f7fb" stroke="none" />
<line x1="80.0" y1="0.0" x2="80.0" y2="900.0" fill="none" stroke="#e8eef5" stroke-width="1.00" stroke-linecap="round" stroke-linejoin="round" />
<line x1="160.0" y1="0.0" x2="160.0" y2="900.0" fill="none" stroke="#e8eef5" stroke-width="1.00" stroke-linecap="round" stroke-linejoin="round" />
<line x1="240.0" y1="0.0" x2="240.0" y2="900.0" fill="none" stroke="#e8eef5" stroke-width="1.00" stroke-linecap="round" stroke-linejoin="round" />
<line x1="320.0" y1="0.0" x2="320.0" y2="900.0" fill="none" stroke="#e8eef5" stroke-width="1.00" stroke-linecap="round" stroke-linejoin="round" />
<line x1="400.0" y1="0.0" x2="400.0" y2="900.0" fill="none" stroke="#e8eef5" stroke-width="1.00" stroke-linecap="round" stroke-linejoin="round" />
<line x1="480.0" y1="0.0" x2="480.0" y2="900.0" fill="none" stroke="#e8eef5" stroke-width="1.00" stroke-linecap="round" stroke-linejoin="round" />
<line x1="560.0" y1="0.0" x2="560.0" y2="900.0" fill="none" stroke="#e8eef5" stroke-width="1.00" stroke-linecap="round" stroke-linejoin="round" />
<line x1="640.0" y1="0.0" x2="640.0" y2="900.0" fill="none" stroke="#e8eef5" stroke-width="1.00" stroke-linecap="round" stroke-linejoin="round" />
<line x1="720.0" y1="0.0" x2="720.0" y2="900.0" fill="none" stroke="#e8eef5" stroke-width="1.00" stroke-linecap="round" stroke-linejoin="round" />
<line x1="800.0" y1="0.0" x2="800.0" y2="900.0" fill="none" stroke="#e8eef5" stroke-width="1.00" stroke-linecap="round" stroke-linejoin="round" />
<line x1="880.0" y1="0.0" x2="880.0" y2="900.0" fill="none" stroke="#e8eef5" stroke-width="1.00" stroke-linecap="round" stroke-linejoin="round" />
<line x1="960.0" y1="0.0" x2="960.0" y2="900.0" fill="none" stroke="#e8eef5" stroke-width="1.00" stroke-linecap="round" stroke-linejoin="round" />
<line x1="1040.0" y1="0.0" x2="1040.0" y2="900.0" fill="none" stroke="#e8eef5" stroke-width="1.00" stroke-linecap="round" stroke-linejoin="round" />
<line x1="1120.0" y1="0.0" x2="1120.0" y2="900.0" fill="none" stroke="#e8eef5" stroke-width="1.00" stroke-linecap="round" stroke-linejoin="round" />
<line x1="1200.0" y1="0.0" x2="1200.0" y2="900.0" fill="none" stroke="#e8eef5" stroke-width="1.00" stroke-linecap="round" stroke-linejoin="round" />
<line x1="1280.0" y1="0.0" x2="1280.0" y2="900.0" fill="none" stroke="#e8eef5" stroke-width="1.00" stroke-linecap="round" stroke-linejoin="round" />
<line x1="1360.0" y1="0.0" x2="1360.0" y2="900.0" fill="none" stroke="#e8eef5" stroke-width="1.00" stroke-linecap="round" stroke-linejoin="round" />
<line x1="1440.0" y1="0.0" x2="1440.0" y2="900.0" fill="none" stroke="#e8eef5" stroke-width="1.00" stroke-linecap="round" stroke-linejoin="round" />
<line x1="1520.0" y1="0.0" x2="1520.0" y2="900.0" fill="none" stroke="#e8eef5" stroke-width="1.00" stroke-linecap="round" stroke-linejoin="round" />
<line x1="0.0" y1="80.0" x2="1600.0" y2="80.0" fill="none" stroke="#e8eef5" stroke-width="1.00" stroke-linecap="round" stroke-linejoin="round" />
<line x1="0.0" y1="160.0" x2="1600.0" y2="160.0" fill="none" stroke="#e8eef5" stroke-width="1.00" stroke-linecap="round" stroke-linejoin="round" />
<line x1="0.0" y1="240.0" x2="1600.0" y2="240.0" fill="none" stroke="#e8eef5" stroke-width="1.00" stroke-linecap="round" stroke-linejoin="round" />
<line x1="0.0" y1="320.0" x2="1600.0" y2="320.0" fill="none" stroke="#e8eef5" stroke-width="1.00" stroke-linecap="round" stroke-linejoin="round" />
<line x1="0.0" y1="400.0" x2="1600.0" y2="400.0" fill="none" stroke="#e8eef5" stroke-width="1.00" stroke-linecap="round" stroke-linejoin="round" />
<line x1="0.0" y1="480.0" x2="1600.0" y2="480.0" fill="none" stroke="#e8eef5" stroke-width="1.00" stroke-linecap="round" stroke-linejoin="round" />
<line x1="0.0" y1="560.0" x2="1600.0" y2="560.0" fill="none" stroke="#e8eef5" stroke-width="1.00" stroke-linecap="round" stroke-linejoin="round" />
<line x1="0.0" y1="640.0" x2="1600.0" y2="640.0" fill="none" stroke="#e8eef5" stroke-width="1.00" stroke-linecap="round" stroke-linejoin="round" />
<line x1="0.0" y1="720.0" x2="1600.0" y2="720.0" fill="none" stroke="#e8eef5" stroke-width="1.00" stroke-linecap="round" stroke-linejoin="round" />
<line x1="0.0" y1="800.0" x2="1600.0" y2="800.0" fill="none" stroke="#e8eef5" stroke-width="1.00" stroke-linecap="round" stroke-linejoin="round" />
<line x1="0.0" y1="880.0" x2="1600.0" y2="880.0" fill="none" stroke="#e8eef5" stroke-width="1.00" stroke-linecap="round" stroke-linejoin="round" />
<line x1="160.0" y1="184.0" x2="160.0" y2="820.0" fill="none" stroke="#d7e0ea" stroke-width="1.20" stroke-linecap="round" stroke-linejoin="round" opacity="0.750" />
<line x1="480.0" y1="184.0" x2="480.0" y2="820.0" fill="none" stroke="#d7e0ea" stroke-width="1.20" stroke-linecap="round" stroke-linejoin="round" opacity="0.750" />
<line x1="800.0" y1="184.0" x2="800.0" y2="820.0" fill="none" stroke="#d7e0ea" stroke-width="1.20" stroke-linecap="round" stroke-linejoin="round" opacity="0.750" />
<line x1="1120.0" y1="184.0" x2="1120.0" y2="820.0" fill="none" stroke="#d7e0ea" stroke-width="1.20" stroke-linecap="round" stroke-linejoin="round" opacity="0.750" />
<line x1="1440.0" y1="184.0" x2="1440.0" y2="820.0" fill="none" stroke="#d7e0ea" stroke-width="1.20" stroke-linecap="round" stroke-linejoin="round" opacity="0.750" />
<rect x="52.0" y="52.0" width="1496.0" height="796.0" rx="6.0" fill="#ffffff" stroke="#d7e0ea" stroke-width="2.00" stroke-linecap="round" stroke-linejoin="round" />
<rect x="52.0" y="52.0" width="1496.0" height="106.0" rx="6.0" fill="#ffffff" stroke="#d7e0ea" stroke-width="1.00" stroke-linecap="round" stroke-linejoin="round" />
<rect x="86.0" y="78.0" width="80.0" height="52.0" rx="4.0" fill="#182232" stroke="none" />
<text x="126.0" y="115.0" font-family="Arial, Helvetica, sans-serif" font-size="28" font-weight="700" text-anchor="middle" fill="#ffffff" opacity="1.000">03</text>
<text x="190.0" y="104.0" font-family="Arial, Helvetica, sans-serif" font-size="40" font-weight="700" text-anchor="start" fill="#182232" opacity="1.000">Geometric Perception and ICP</text>
<text x="190.0" y="137.0" font-family="Arial, Helvetica, sans-serif" font-size="22" font-weight="500" text-anchor="start" fill="#697586" opacity="1.000">Correspondences estimate the rigid transform that aligns source and target points.</text>
<text x="1355.0" y="103.0" font-family="Arial, Helvetica, sans-serif" font-size="18" font-weight="700" text-anchor="end" fill="#697586" opacity="1.000">RML COLAB</text>
<text x="1355.0" y="131.0" font-family="Arial, Helvetica, sans-serif" font-size="16" font-weight="500" text-anchor="end" fill="#9aa8bb" opacity="1.000">concept map</text>
<rect x="1385.0" y="82.0" width="96.0" height="46.0" rx="4.0" fill="#2d6cdf" stroke="none" />
<text x="1433.0" y="113.0" font-family="Arial, Helvetica, sans-serif" font-size="18" font-weight="700" text-anchor="middle" fill="#ffffff" opacity="1.000">RUN</text>
<circle cx="94.0" cy="812.0" r="8.0" fill="#2d6cdf" stroke="none" />
<text x="110.0" y="819.0" font-family="Arial, Helvetica, sans-serif" font-size="15" font-weight="700" text-anchor="start" fill="#697586" opacity="1.000">state</text>
<circle cx="212.0" cy="812.0" r="8.0" fill="#d99722" stroke="none" />
<text x="228.0" y="819.0" font-family="Arial, Helvetica, sans-serif" font-size="15" font-weight="700" text-anchor="start" fill="#697586" opacity="1.000">target</text>
<circle cx="330.0" cy="812.0" r="8.0" fill="#c94b38" stroke="none" />
<text x="346.0" y="819.0" font-family="Arial, Helvetica, sans-serif" font-size="15" font-weight="700" text-anchor="start" fill="#697586" opacity="1.000">error</text>
<circle cx="448.0" cy="812.0" r="8.0" fill="#128b82" stroke="none" />
<text x="464.0" y="819.0" font-family="Arial, Helvetica, sans-serif" font-size="15" font-weight="700" text-anchor="start" fill="#697586" opacity="1.000">policy</text>
<rect x="108.0" y="228.0" width="950.0" height="512.0" rx="6.0" fill="#f9fbfe" stroke="#d7e0ea" stroke-width="2.00" stroke-linecap="round" stroke-linejoin="round" />
<rect x="145.0" y="640.0" width="850.0" height="38.0" rx="4.0" fill="#e5ecf4" stroke="#d7e0ea" stroke-width="2.00" stroke-linecap="round" stroke-linejoin="round" />
<rect x="186.0" y="410.0" width="110.0" height="120.0" rx="6.0" fill="#dfe7f0" stroke="#9aa8bb" stroke-width="3.00" stroke-linecap="round" stroke-linejoin="round" />
<circle cx="238.0" cy="408.0" r="36.0" fill="#263241" stroke="none" />
<circle cx="238.0" cy="408.0" r="20.0" fill="#2d6cdf" stroke="none" />
<line x1="296.0" y1="430.0" x2="440.0" y2="460.0" fill="none" stroke="#2d6cdf" stroke-width="4.00" stroke-linecap="round" stroke-linejoin="round" opacity="0.800" />
<polygon points="440.0,460.0 425.0,465.6 428.5,448.9" fill="#2d6cdf" stroke="none" opacity="0.800" />
<text x="198.0" y="568.0" font-family="Arial, Helvetica, sans-serif" font-size="17" font-weight="700" text-anchor="start" fill="#697586" opacity="1.000">RGB-D camera</text>
<line x1="504.5" y1="431.4" x2="735.1" y2="471.7" fill="none" stroke="#9aa8bb" stroke-width="1.40" stroke-linecap="round" stroke-linejoin="round" opacity="0.380" />
<line x1="552.5" y1="430.6" x2="779.3" y2="490.5" fill="none" stroke="#9aa8bb" stroke-width="1.40" stroke-linecap="round" stroke-linejoin="round" opacity="0.380" />
<line x1="561.0" y1="450.3" x2="779.0" y2="512.0" fill="none" stroke="#9aa8bb" stroke-width="1.40" stroke-linecap="round" stroke-linejoin="round" opacity="0.380" />
<line x1="542.1" y1="473.2" x2="752.4" y2="525.2" fill="none" stroke="#9aa8bb" stroke-width="1.40" stroke-linecap="round" stroke-linejoin="round" opacity="0.380" />
<line x1="511.6" y1="492.2" x2="716.8" y2="530.1" fill="none" stroke="#9aa8bb" stroke-width="1.40" stroke-linecap="round" stroke-linejoin="round" opacity="0.380" />
<line x1="474.9" y1="512.4" x2="675.0" y2="533.6" fill="none" stroke="#9aa8bb" stroke-width="1.40" stroke-linecap="round" stroke-linejoin="round" opacity="0.380" />
<line x1="424.3" y1="534.6" x2="619.8" y2="533.2" fill="none" stroke="#9aa8bb" stroke-width="1.40" stroke-linecap="round" stroke-linejoin="round" opacity="0.380" />
<line x1="365.5" y1="543.7" x2="562.4" y2="517.5" fill="none" stroke="#9aa8bb" stroke-width="1.40" stroke-linecap="round" stroke-linejoin="round" opacity="0.380" />
<circle cx="735.1" cy="471.7" r="5.0" fill="#d99722" stroke="none" opacity="0.900" />
<circle cx="695.0" cy="478.5" r="5.0" fill="#d99722" stroke="none" opacity="0.900" />
<circle cx="729.0" cy="452.9" r="5.0" fill="#d99722" stroke="none" opacity="0.900" />
<circle cx="735.6" cy="488.0" r="5.0" fill="#d99722" stroke="none" opacity="0.900" />
<circle cx="674.5" cy="459.9" r="5.0" fill="#d99722" stroke="none" opacity="0.900" />
<circle cx="770.5" cy="459.0" r="5.0" fill="#d99722" stroke="none" opacity="0.900" />
<circle cx="698.4" cy="494.4" r="5.0" fill="#d99722" stroke="none" opacity="0.900" />
<circle cx="704.9" cy="440.3" r="5.0" fill="#d99722" stroke="none" opacity="0.900" />
<circle cx="779.3" cy="490.5" r="5.0" fill="#d99722" stroke="none" opacity="0.900" />
<circle cx="654.0" cy="477.2" r="5.0" fill="#d99722" stroke="none" opacity="0.900" />
<circle cx="755.7" cy="442.8" r="5.0" fill="#d99722" stroke="none" opacity="0.900" />
<circle cx="727.5" cy="510.7" r="5.0" fill="#d99722" stroke="none" opacity="0.900" />
<circle cx="656.6" cy="438.3" r="5.0" fill="#d99722" stroke="none" opacity="0.900" />
<circle cx="795.0" cy="469.3" r="5.0" fill="#d99722" stroke="none" opacity="0.900" />
<circle cx="668.2" cy="497.7" r="5.0" fill="#d99722" stroke="none" opacity="0.900" />
<circle cx="726.4" cy="419.6" r="5.0" fill="#d99722" stroke="none" opacity="0.900" />
<circle cx="779.0" cy="512.0" r="5.0" fill="#d99722" stroke="none" opacity="0.900" />
<circle cx="640.6" cy="462.8" r="5.0" fill="#d99722" stroke="none" opacity="0.900" />
<circle cx="790.6" cy="443.7" r="5.0" fill="#d99722" stroke="none" opacity="0.900" />
<circle cx="694.5" cy="527.3" r="5.0" fill="#d99722" stroke="none" opacity="0.900" />
<circle cx="672.2" cy="420.0" r="5.0" fill="#d99722" stroke="none" opacity="0.900" />
<circle cx="801.3" cy="485.9" r="5.0" fill="#d99722" stroke="none" opacity="0.900" />
<circle cx="628.7" cy="492.3" r="5.0" fill="#d99722" stroke="none" opacity="0.900" />
<circle cx="767.6" cy="410.0" r="5.0" fill="#d99722" stroke="none" opacity="0.900" />
<circle cx="752.4" cy="525.2" r="5.0" fill="#d99722" stroke="none" opacity="0.900" />
<circle cx="638.0" cy="444.2" r="5.0" fill="#d99722" stroke="none" opacity="0.900" />
<circle cx="832.1" cy="455.0" r="5.0" fill="#d99722" stroke="none" opacity="0.900" />
<circle cx="650.5" cy="527.8" r="5.0" fill="#d99722" stroke="none" opacity="0.900" />
<circle cx="704.9" cy="411.8" r="5.0" fill="#d99722" stroke="none" opacity="0.900" />
<circle cx="801.4" cy="507.5" r="5.0" fill="#d99722" stroke="none" opacity="0.900" />
<circle cx="590.6" cy="474.2" r="5.0" fill="#d99722" stroke="none" opacity="0.900" />
<circle cx="808.4" cy="418.7" r="5.0" fill="#d99722" stroke="none" opacity="0.900" />
<circle cx="716.8" cy="530.1" r="5.0" fill="#d99722" stroke="none" opacity="0.900" />
<circle cx="642.2" cy="419.1" r="5.0" fill="#d99722" stroke="none" opacity="0.900" />
<circle cx="860.0" cy="479.3" r="5.0" fill="#d99722" stroke="none" opacity="0.900" />
<circle cx="617.4" cy="511.7" r="5.0" fill="#d99722" stroke="none" opacity="0.900" />
<circle cx="742.8" cy="408.2" r="5.0" fill="#d99722" stroke="none" opacity="0.900" />
<circle cx="788.8" cy="535.3" r="5.0" fill="#d99722" stroke="none" opacity="0.900" />
<circle cx="578.6" cy="446.0" r="5.0" fill="#d99722" stroke="none" opacity="0.900" />
<circle cx="832.4" cy="439.4" r="5.0" fill="#d99722" stroke="none" opacity="0.900" />
<circle cx="675.0" cy="533.6" r="5.0" fill="#d99722" stroke="none" opacity="0.900" />
<circle cx="667.1" cy="391.1" r="5.0" fill="#d99722" stroke="none" opacity="0.900" />
<circle cx="853.5" cy="508.1" r="5.0" fill="#d99722" stroke="none" opacity="0.900" />
<circle cx="600.2" cy="489.0" r="5.0" fill="#d99722" stroke="none" opacity="0.900" />
<circle cx="790.9" cy="405.4" r="5.0" fill="#d99722" stroke="none" opacity="0.900" />
<circle cx="749.9" cy="559.5" r="5.0" fill="#d99722" stroke="none" opacity="0.900" />
<circle cx="601.9" cy="420.1" r="5.0" fill="#d99722" stroke="none" opacity="0.900" />
<circle cx="846.8" cy="462.9" r="5.0" fill="#d99722" stroke="none" opacity="0.900" />
<circle cx="619.8" cy="533.2" r="5.0" fill="#d99722" stroke="none" opacity="0.900" />
<circle cx="718.1" cy="374.9" r="5.0" fill="#d99722" stroke="none" opacity="0.900" />
<circle cx="818.3" cy="529.2" r="5.0" fill="#d99722" stroke="none" opacity="0.900" />
<circle cx="585.2" cy="464.2" r="5.0" fill="#d99722" stroke="none" opacity="0.900" />
<circle cx="850.4" cy="412.2" r="5.0" fill="#d99722" stroke="none" opacity="0.900" />
<circle cx="692.3" cy="564.7" r="5.0" fill="#d99722" stroke="none" opacity="0.900" />
<circle cx="643.0" cy="403.3" r="5.0" fill="#d99722" stroke="none" opacity="0.900" />
<circle cx="863.0" cy="490.7" r="5.0" fill="#d99722" stroke="none" opacity="0.900" />
<circle cx="562.4" cy="517.5" r="5.0" fill="#d99722" stroke="none" opacity="0.900" />
<circle cx="775.5" cy="381.0" r="5.0" fill="#d99722" stroke="none" opacity="0.900" />
<circle cx="775.6" cy="543.6" r="5.0" fill="#d99722" stroke="none" opacity="0.900" />
<circle cx="571.3" cy="431.9" r="5.0" fill="#d99722" stroke="none" opacity="0.900" />
<circle cx="897.5" cy="437.3" r="5.0" fill="#d99722" stroke="none" opacity="0.900" />
<circle cx="640.5" cy="549.6" r="5.0" fill="#d99722" stroke="none" opacity="0.900" />
<circle cx="686.7" cy="388.8" r="5.0" fill="#d99722" stroke="none" opacity="0.900" />
<circle cx="868.1" cy="527.4" r="5.0" fill="#d99722" stroke="none" opacity="0.900" />
<circle cx="504.5" cy="431.4" r="5.0" fill="#2d6cdf" stroke="none" opacity="0.880" />
<circle cx="470.6" cy="454.0" r="5.0" fill="#2d6cdf" stroke="none" opacity="0.880" />
<circle cx="491.2" cy="416.7" r="5.0" fill="#2d6cdf" stroke="none" opacity="0.880" />
<circle cx="511.5" cy="446.1" r="5.0" fill="#2d6cdf" stroke="none" opacity="0.880" />
<circle cx="444.3" cy="445.3" r="5.0" fill="#2d6cdf" stroke="none" opacity="0.880" />
<circle cx="531.7" cy="405.4" r="5.0" fill="#2d6cdf" stroke="none" opacity="0.880" />
<circle cx="480.3" cy="467.1" r="5.0" fill="#2d6cdf" stroke="none" opacity="0.880" />
<circle cx="464.1" cy="415.0" r="5.0" fill="#2d6cdf" stroke="none" opacity="0.880" />
<circle cx="552.5" cy="430.6" r="5.0" fill="#2d6cdf" stroke="none" opacity="0.880" />
<circle cx="432.7" cy="469.5" r="5.0" fill="#2d6cdf" stroke="none" opacity="0.880" />
<circle cx="511.5" cy="396.6" r="5.0" fill="#2d6cdf" stroke="none" opacity="0.880" />
<circle cx="513.5" cy="470.1" r="5.0" fill="#2d6cdf" stroke="none" opacity="0.880" />
<circle cx="419.2" cy="432.9" r="5.0" fill="#2d6cdf" stroke="none" opacity="0.880" />
<circle cx="558.2" cy="404.8" r="5.0" fill="#2d6cdf" stroke="none" opacity="0.880" />
<circle cx="454.0" cy="482.4" r="5.0" fill="#2d6cdf" stroke="none" opacity="0.880" />
<circle cx="475.3" cy="387.4" r="5.0" fill="#2d6cdf" stroke="none" opacity="0.880" />
<circle cx="561.0" cy="450.3" r="5.0" fill="#2d6cdf" stroke="none" opacity="0.880" />
<circle cx="414.6" cy="461.8" r="5.0" fill="#2d6cdf" stroke="none" opacity="0.880" />
<circle cx="543.7" cy="383.2" r="5.0" fill="#2d6cdf" stroke="none" opacity="0.880" />
<circle cx="490.1" cy="498.7" r="5.0" fill="#2d6cdf" stroke="none" opacity="0.880" />
<circle cx="426.0" cy="409.9" r="5.0" fill="#2d6cdf" stroke="none" opacity="0.880" />
<circle cx="570.7" cy="417.4" r="5.0" fill="#2d6cdf" stroke="none" opacity="0.880" />
<circle cx="415.7" cy="493.6" r="5.0" fill="#2d6cdf" stroke="none" opacity="0.880" />
<circle cx="509.0" cy="361.8" r="5.0" fill="#2d6cdf" stroke="none" opacity="0.880" />
<circle cx="542.1" cy="473.2" r="5.0" fill="#2d6cdf" stroke="none" opacity="0.880" />
<circle cx="404.6" cy="445.9" r="5.0" fill="#2d6cdf" stroke="none" opacity="0.880" />
<circle cx="586.2" cy="376.6" r="5.0" fill="#2d6cdf" stroke="none" opacity="0.880" />
<circle cx="450.1" cy="517.2" r="5.0" fill="#2d6cdf" stroke="none" opacity="0.880" />
<circle cx="452.5" cy="389.0" r="5.0" fill="#2d6cdf" stroke="none" opacity="0.880" />
<circle cx="579.6" cy="437.0" r="5.0" fill="#2d6cdf" stroke="none" opacity="0.880" />
<circle cx="373.6" cy="492.6" r="5.0" fill="#2d6cdf" stroke="none" opacity="0.880" />
<circle cx="549.8" cy="353.1" r="5.0" fill="#2d6cdf" stroke="none" opacity="0.880" />
<circle cx="511.6" cy="492.2" r="5.0" fill="#2d6cdf" stroke="none" opacity="0.880" />
<circle cx="398.2" cy="421.2" r="5.0" fill="#2d6cdf" stroke="none" opacity="0.880" />
<circle cx="621.6" cy="387.4" r="5.0" fill="#2d6cdf" stroke="none" opacity="0.880" />
<circle cx="413.3" cy="515.9" r="5.0" fill="#2d6cdf" stroke="none" opacity="0.880" />
<circle cx="485.6" cy="370.3" r="5.0" fill="#2d6cdf" stroke="none" opacity="0.880" />
<circle cx="579.5" cy="467.6" r="5.0" fill="#2d6cdf" stroke="none" opacity="0.880" />
<circle cx="351.1" cy="471.7" r="5.0" fill="#2d6cdf" stroke="none" opacity="0.880" />
<circle cx="580.2" cy="362.2" r="5.0" fill="#2d6cdf" stroke="none" opacity="0.880" />
<circle cx="474.9" cy="512.4" r="5.0" fill="#2d6cdf" stroke="none" opacity="0.880" />
<circle cx="409.5" cy="385.5" r="5.0" fill="#2d6cdf" stroke="none" opacity="0.880" />
<circle cx="627.4" cy="416.3" r="5.0" fill="#2d6cdf" stroke="none" opacity="0.880" />
<circle cx="388.4" cy="502.2" r="5.0" fill="#2d6cdf" stroke="none" opacity="0.880" />
<circle cx="528.4" cy="348.1" r="5.0" fill="#2d6cdf" stroke="none" opacity="0.880" />
<circle cx="553.8" cy="505.5" r="5.0" fill="#2d6cdf" stroke="none" opacity="0.880" />
<circle cx="361.8" cy="438.6" r="5.0" fill="#2d6cdf" stroke="none" opacity="0.880" />
<circle cx="602.9" cy="377.8" r="5.0" fill="#2d6cdf" stroke="none" opacity="0.880" />
<circle cx="424.3" cy="534.6" r="5.0" fill="#2d6cdf" stroke="none" opacity="0.880" />
<circle cx="449.5" cy="350.0" r="5.0" fill="#2d6cdf" stroke="none" opacity="0.880" />
<circle cx="603.9" cy="450.0" r="5.0" fill="#2d6cdf" stroke="none" opacity="0.880" />
<circle cx="364.6" cy="485.7" r="5.0" fill="#2d6cdf" stroke="none" opacity="0.880" />
<circle cx="585.5" cy="330.0" r="5.0" fill="#2d6cdf" stroke="none" opacity="0.880" />
<circle cx="503.4" cy="533.8" r="5.0" fill="#2d6cdf" stroke="none" opacity="0.880" />
<circle cx="392.5" cy="406.5" r="5.0" fill="#2d6cdf" stroke="none" opacity="0.880" />
<circle cx="629.0" cy="396.6" r="5.0" fill="#2d6cdf" stroke="none" opacity="0.880" />
<circle cx="365.5" cy="543.7" r="5.0" fill="#2d6cdf" stroke="none" opacity="0.880" />
<circle cx="504.4" cy="332.1" r="5.0" fill="#2d6cdf" stroke="none" opacity="0.880" />
<circle cx="570.7" cy="480.5" r="5.0" fill="#2d6cdf" stroke="none" opacity="0.880" />
<circle cx="338.7" cy="461.8" r="5.0" fill="#2d6cdf" stroke="none" opacity="0.880" />
<circle cx="638.7" cy="333.8" r="5.0" fill="#2d6cdf" stroke="none" opacity="0.880" />
<circle cx="449.9" cy="541.1" r="5.0" fill="#2d6cdf" stroke="none" opacity="0.880" />
<circle cx="426.5" cy="375.5" r="5.0" fill="#2d6cdf" stroke="none" opacity="0.880" />
<circle cx="648.6" cy="428.0" r="5.0" fill="#2d6cdf" stroke="none" opacity="0.880" />
<polyline points="512.0,324.0 600.0,278.0 710.0,294.0 812.0,356.0" fill="none" stroke="#5867d8" stroke-width="5.00" stroke-linecap="round" stroke-linejoin="round" />
<line x1="760.0" y1="350.0" x2="838.0" y2="420.0" fill="none" stroke="#5867d8" stroke-width="5.00" stroke-linecap="round" stroke-linejoin="round" />
<polygon points="838.0,420.0 820.2,417.0 833.1,402.7" fill="#5867d8" stroke="none" />
<text x="650.0" y="286.0" font-family="Arial, Helvetica, sans-serif" font-size="18" font-weight="700" text-anchor="middle" fill="#5867d8" opacity="1.000">rigid transform</text>
<line x1="494.0" y1="540.0" x2="531.1" y2="540.0" fill="none" stroke="#c94b38" stroke-width="4.00" stroke-linecap="round" stroke-linejoin="round" />
<polygon points="531.1,540.0 521.0,546.4 521.0,533.6" fill="#c94b38" stroke="none" />
<line x1="494.0" y1="540.0" x2="494.0" y2="502.9" fill="none" stroke="#128b82" stroke-width="4.00" stroke-linecap="round" stroke-linejoin="round" />
<polygon points="494.0,502.9 500.4,513.0 487.6,513.0" fill="#128b82" stroke="none" />
<circle cx="494.0" cy="540.0" r="4.5" fill="#182232" stroke="none" />
<text x="486.0" y="574.0" font-family="Arial, Helvetica, sans-serif" font-size="16" font-weight="700" text-anchor="middle" fill="#697586" opacity="1.000">source</text>
<line x1="775.0" y1="560.0" x2="812.1" y2="560.0" fill="none" stroke="#c94b38" stroke-width="4.00" stroke-linecap="round" stroke-linejoin="round" />
<polygon points="812.1,560.0 802.0,566.4 802.0,553.6" fill="#c94b38" stroke="none" />
<line x1="775.0" y1="560.0" x2="775.0" y2="522.9" fill="none" stroke="#128b82" stroke-width="4.00" stroke-linecap="round" stroke-linejoin="round" />
<polygon points="775.0,522.9 781.4,533.0 768.6,533.0" fill="#128b82" stroke="none" />
<circle cx="775.0" cy="560.0" r="4.5" fill="#182232" stroke="none" />
<text x="767.0" y="594.0" font-family="Arial, Helvetica, sans-serif" font-size="16" font-weight="700" text-anchor="middle" fill="#697586" opacity="1.000">target</text>
<rect x="1110.0" y="250.0" width="314.0" height="438.0" rx="6.0" fill="#ffffff" stroke="#d7e0ea" stroke-width="2.00" stroke-linecap="round" stroke-linejoin="round" />
<text x="1140.0" y="303.0" font-family="Arial, Helvetica, sans-serif" font-size="24" font-weight="700" text-anchor="start" fill="#182232" opacity="1.000">ICP estimate</text>
<circle cx="1146.0" cy="364.0" r="9.0" fill="#2d6cdf" stroke="none" />
<line x1="1170.0" y1="364.0" x2="1355.0" y2="364.0" fill="none" stroke="#2d6cdf" stroke-width="7.00" stroke-linecap="round" stroke-linejoin="round" opacity="0.280" />
<text x="1170.0" y="392.0" font-family="Arial, Helvetica, sans-serif" font-size="17" font-weight="700" text-anchor="start" fill="#697586" opacity="1.000">nearest neighbors</text>
<circle cx="1146.0" cy="464.0" r="9.0" fill="#5867d8" stroke="none" />
<line x1="1170.0" y1="464.0" x2="1355.0" y2="464.0" fill="none" stroke="#5867d8" stroke-width="7.00" stroke-linecap="round" stroke-linejoin="round" opacity="0.280" />
<text x="1170.0" y="492.0" font-family="Arial, Helvetica, sans-serif" font-size="17" font-weight="700" text-anchor="start" fill="#697586" opacity="1.000">least-squares pose</text>
<circle cx="1146.0" cy="564.0" r="9.0" fill="#128b82" stroke="none" />
<line x1="1170.0" y1="564.0" x2="1355.0" y2="564.0" fill="none" stroke="#128b82" stroke-width="7.00" stroke-linecap="round" stroke-linejoin="round" opacity="0.280" />
<text x="1170.0" y="592.0" font-family="Arial, Helvetica, sans-serif" font-size="17" font-weight="700" text-anchor="start" fill="#697586" opacity="1.000">repeat until stable</text>
<polyline points="1160.0,622.0 1202.0,588.0 1265.0,600.0 1328.0,548.0 1372.0,556.0" fill="none" stroke="#128b82" stroke-width="5.00" stroke-linecap="round" stroke-linejoin="round" />
</svg>
