<svg xmlns="http://www.w3.org/2000/svg" width="1600" height="900" viewBox="0 0 1600 900" data-rml-style="technical-svg-v1">
  <title>Robotic Manipulation Learning Concept Illustration</title>
  <desc>04 Grasp Scoring. Antipodal contact balance separates robust candidates from weak grasps.</desc>
  <metadata>
    Canonical Colab concept asset. Generated by tools/generate_colab_svg_illustrations.py.
    Visual system: cool engineering paper, restrained robotics palette, shared line widths,
    large readable primitives, no photo textures, no random image-generation artifacts.
    Use the SVG as the source of truth; PNG exports are for notebook and static site display.
  </metadata>
  <defs>
    <filter id="soft-shadow" x="-10%" y="-10%" width="120%" height="120%">
      <feDropShadow dx="0" dy="10" stdDeviation="12" flood-color="#182232" flood-opacity="0.12"/>
    </filter>
  </defs>
  <rect x="0.0" y="0.0" width="1600.0" height="900.0" rx="0.0" fill="#f4f7fb" stroke="none" />
<line x1="80.0" y1="0.0" x2="80.0" y2="900.0" fill="none" stroke="#e8eef5" stroke-width="1.00" stroke-linecap="round" stroke-linejoin="round" />
<line x1="160.0" y1="0.0" x2="160.0" y2="900.0" fill="none" stroke="#e8eef5" stroke-width="1.00" stroke-linecap="round" stroke-linejoin="round" />
<line x1="240.0" y1="0.0" x2="240.0" y2="900.0" fill="none" stroke="#e8eef5" stroke-width="1.00" stroke-linecap="round" stroke-linejoin="round" />
<line x1="320.0" y1="0.0" x2="320.0" y2="900.0" fill="none" stroke="#e8eef5" stroke-width="1.00" stroke-linecap="round" stroke-linejoin="round" />
<line x1="400.0" y1="0.0" x2="400.0" y2="900.0" fill="none" stroke="#e8eef5" stroke-width="1.00" stroke-linecap="round" stroke-linejoin="round" />
<line x1="480.0" y1="0.0" x2="480.0" y2="900.0" fill="none" stroke="#e8eef5" stroke-width="1.00" stroke-linecap="round" stroke-linejoin="round" />
<line x1="560.0" y1="0.0" x2="560.0" y2="900.0" fill="none" stroke="#e8eef5" stroke-width="1.00" stroke-linecap="round" stroke-linejoin="round" />
<line x1="640.0" y1="0.0" x2="640.0" y2="900.0" fill="none" stroke="#e8eef5" stroke-width="1.00" stroke-linecap="round" stroke-linejoin="round" />
<line x1="720.0" y1="0.0" x2="720.0" y2="900.0" fill="none" stroke="#e8eef5" stroke-width="1.00" stroke-linecap="round" stroke-linejoin="round" />
<line x1="800.0" y1="0.0" x2="800.0" y2="900.0" fill="none" stroke="#e8eef5" stroke-width="1.00" stroke-linecap="round" stroke-linejoin="round" />
<line x1="880.0" y1="0.0" x2="880.0" y2="900.0" fill="none" stroke="#e8eef5" stroke-width="1.00" stroke-linecap="round" stroke-linejoin="round" />
<line x1="960.0" y1="0.0" x2="960.0" y2="900.0" fill="none" stroke="#e8eef5" stroke-width="1.00" stroke-linecap="round" stroke-linejoin="round" />
<line x1="1040.0" y1="0.0" x2="1040.0" y2="900.0" fill="none" stroke="#e8eef5" stroke-width="1.00" stroke-linecap="round" stroke-linejoin="round" />
<line x1="1120.0" y1="0.0" x2="1120.0" y2="900.0" fill="none" stroke="#e8eef5" stroke-width="1.00" stroke-linecap="round" stroke-linejoin="round" />
<line x1="1200.0" y1="0.0" x2="1200.0" y2="900.0" fill="none" stroke="#e8eef5" stroke-width="1.00" stroke-linecap="round" stroke-linejoin="round" />
<line x1="1280.0" y1="0.0" x2="1280.0" y2="900.0" fill="none" stroke="#e8eef5" stroke-width="1.00" stroke-linecap="round" stroke-linejoin="round" />
<line x1="1360.0" y1="0.0" x2="1360.0" y2="900.0" fill="none" stroke="#e8eef5" stroke-width="1.00" stroke-linecap="round" stroke-linejoin="round" />
<line x1="1440.0" y1="0.0" x2="1440.0" y2="900.0" fill="none" stroke="#e8eef5" stroke-width="1.00" stroke-linecap="round" stroke-linejoin="round" />
<line x1="1520.0" y1="0.0" x2="1520.0" y2="900.0" fill="none" stroke="#e8eef5" stroke-width="1.00" stroke-linecap="round" stroke-linejoin="round" />
<line x1="0.0" y1="80.0" x2="1600.0" y2="80.0" fill="none" stroke="#e8eef5" stroke-width="1.00" stroke-linecap="round" stroke-linejoin="round" />
<line x1="0.0" y1="160.0" x2="1600.0" y2="160.0" fill="none" stroke="#e8eef5" stroke-width="1.00" stroke-linecap="round" stroke-linejoin="round" />
<line x1="0.0" y1="240.0" x2="1600.0" y2="240.0" fill="none" stroke="#e8eef5" stroke-width="1.00" stroke-linecap="round" stroke-linejoin="round" />
<line x1="0.0" y1="320.0" x2="1600.0" y2="320.0" fill="none" stroke="#e8eef5" stroke-width="1.00" stroke-linecap="round" stroke-linejoin="round" />
<line x1="0.0" y1="400.0" x2="1600.0" y2="400.0" fill="none" stroke="#e8eef5" stroke-width="1.00" stroke-linecap="round" stroke-linejoin="round" />
<line x1="0.0" y1="480.0" x2="1600.0" y2="480.0" fill="none" stroke="#e8eef5" stroke-width="1.00" stroke-linecap="round" stroke-linejoin="round" />
<line x1="0.0" y1="560.0" x2="1600.0" y2="560.0" fill="none" stroke="#e8eef5" stroke-width="1.00" stroke-linecap="round" stroke-linejoin="round" />
<line x1="0.0" y1="640.0" x2="1600.0" y2="640.0" fill="none" stroke="#e8eef5" stroke-width="1.00" stroke-linecap="round" stroke-linejoin="round" />
<line x1="0.0" y1="720.0" x2="1600.0" y2="720.0" fill="none" stroke="#e8eef5" stroke-width="1.00" stroke-linecap="round" stroke-linejoin="round" />
<line x1="0.0" y1="800.0" x2="1600.0" y2="800.0" fill="none" stroke="#e8eef5" stroke-width="1.00" stroke-linecap="round" stroke-linejoin="round" />
<line x1="0.0" y1="880.0" x2="1600.0" y2="880.0" fill="none" stroke="#e8eef5" stroke-width="1.00" stroke-linecap="round" stroke-linejoin="round" />
<line x1="160.0" y1="184.0" x2="160.0" y2="820.0" fill="none" stroke="#d7e0ea" stroke-width="1.20" stroke-linecap="round" stroke-linejoin="round" opacity="0.750" />
<line x1="480.0" y1="184.0" x2="480.0" y2="820.0" fill="none" stroke="#d7e0ea" stroke-width="1.20" stroke-linecap="round" stroke-linejoin="round" opacity="0.750" />
<line x1="800.0" y1="184.0" x2="800.0" y2="820.0" fill="none" stroke="#d7e0ea" stroke-width="1.20" stroke-linecap="round" stroke-linejoin="round" opacity="0.750" />
<line x1="1120.0" y1="184.0" x2="1120.0" y2="820.0" fill="none" stroke="#d7e0ea" stroke-width="1.20" stroke-linecap="round" stroke-linejoin="round" opacity="0.750" />
<line x1="1440.0" y1="184.0" x2="1440.0" y2="820.0" fill="none" stroke="#d7e0ea" stroke-width="1.20" stroke-linecap="round" stroke-linejoin="round" opacity="0.750" />
<rect x="52.0" y="52.0" width="1496.0" height="796.0" rx="6.0" fill="#ffffff" stroke="#d7e0ea" stroke-width="2.00" stroke-linecap="round" stroke-linejoin="round" />
<rect x="52.0" y="52.0" width="1496.0" height="106.0" rx="6.0" fill="#ffffff" stroke="#d7e0ea" stroke-width="1.00" stroke-linecap="round" stroke-linejoin="round" />
<rect x="86.0" y="78.0" width="80.0" height="52.0" rx="4.0" fill="#182232" stroke="none" />
<text x="126.0" y="115.0" font-family="Arial, Helvetica, sans-serif" font-size="28" font-weight="700" text-anchor="middle" fill="#ffffff" opacity="1.000">04</text>
<text x="190.0" y="104.0" font-family="Arial, Helvetica, sans-serif" font-size="40" font-weight="700" text-anchor="start" fill="#182232" opacity="1.000">Grasp Scoring</text>
<text x="190.0" y="137.0" font-family="Arial, Helvetica, sans-serif" font-size="22" font-weight="500" text-anchor="start" fill="#697586" opacity="1.000">Antipodal contact balance separates robust candidates from weak grasps.</text>
<text x="1355.0" y="103.0" font-family="Arial, Helvetica, sans-serif" font-size="18" font-weight="700" text-anchor="end" fill="#697586" opacity="1.000">RML COLAB</text>
<text x="1355.0" y="131.0" font-family="Arial, Helvetica, sans-serif" font-size="16" font-weight="500" text-anchor="end" fill="#9aa8bb" opacity="1.000">concept map</text>
<rect x="1385.0" y="82.0" width="96.0" height="46.0" rx="4.0" fill="#2d6cdf" stroke="none" />
<text x="1433.0" y="113.0" font-family="Arial, Helvetica, sans-serif" font-size="18" font-weight="700" text-anchor="middle" fill="#ffffff" opacity="1.000">RUN</text>
<circle cx="94.0" cy="812.0" r="8.0" fill="#2d6cdf" stroke="none" />
<text x="110.0" y="819.0" font-family="Arial, Helvetica, sans-serif" font-size="15" font-weight="700" text-anchor="start" fill="#697586" opacity="1.000">state</text>
<circle cx="212.0" cy="812.0" r="8.0" fill="#d99722" stroke="none" />
<text x="228.0" y="819.0" font-family="Arial, Helvetica, sans-serif" font-size="15" font-weight="700" text-anchor="start" fill="#697586" opacity="1.000">target</text>
<circle cx="330.0" cy="812.0" r="8.0" fill="#c94b38" stroke="none" />
<text x="346.0" y="819.0" font-family="Arial, Helvetica, sans-serif" font-size="15" font-weight="700" text-anchor="start" fill="#697586" opacity="1.000">error</text>
<circle cx="448.0" cy="812.0" r="8.0" fill="#128b82" stroke="none" />
<text x="464.0" y="819.0" font-family="Arial, Helvetica, sans-serif" font-size="15" font-weight="700" text-anchor="start" fill="#697586" opacity="1.000">policy</text>
<rect x="106.0" y="238.0" width="942.0" height="500.0" rx="6.0" fill="#f9fbfe" stroke="#d7e0ea" stroke-width="2.00" stroke-linecap="round" stroke-linejoin="round" />
<rect x="160.0" y="642.0" width="820.0" height="42.0" rx="4.0" fill="#e1e9f2" stroke="#d7e0ea" stroke-width="2.00" stroke-linecap="round" stroke-linejoin="round" />
<polygon points="400.0,510.0 450.0,420.0 550.0,380.0 680.0,402.0 755.0,470.0 725.0,575.0 600.0,626.0 475.0,600.0" fill="#e8edf5" stroke="#9aa8bb" stroke-width="3.00" stroke-linecap="round" stroke-linejoin="round" />
<circle cx="587.1" cy="513.7" r="4.5" fill="#9aa8bb" stroke="none" opacity="0.720" />
<circle cx="556.3" cy="499.5" r="4.5" fill="#9aa8bb" stroke="none" opacity="0.720" />
<circle cx="605.4" cy="498.7" r="4.5" fill="#9aa8bb" stroke="none" opacity="0.720" />
<circle cx="564.2" cy="525.5" r="4.5" fill="#9aa8bb" stroke="none" opacity="0.720" />
<circle cx="566.2" cy="476.8" r="4.5" fill="#9aa8bb" stroke="none" opacity="0.720" />
<circle cx="619.1" cy="519.3" r="4.5" fill="#9aa8bb" stroke="none" opacity="0.720" />
<circle cx="536.7" cy="510.7" r="4.5" fill="#9aa8bb" stroke="none" opacity="0.720" />
<circle cx="613.3" cy="476.1" r="4.5" fill="#9aa8bb" stroke="none" opacity="0.720" />
<circle cx="587.7" cy="544.5" r="4.5" fill="#9aa8bb" stroke="none" opacity="0.720" />
<circle cx="537.5" cy="482.4" r="4.5" fill="#9aa8bb" stroke="none" opacity="0.720" />
<circle cx="638.5" cy="503.8" r="4.5" fill="#9aa8bb" stroke="none" opacity="0.720" />
<circle cx="526.9" cy="537.3" r="4.5" fill="#9aa8bb" stroke="none" opacity="0.720" />
<circle cx="584.0" cy="458.9" r="4.5" fill="#9aa8bb" stroke="none" opacity="0.720" />
<circle cx="620.6" cy="535.7" r="4.5" fill="#9aa8bb" stroke="none" opacity="0.720" />
<circle cx="507.6" cy="498.6" r="4.5" fill="#9aa8bb" stroke="none" opacity="0.720" />
<circle cx="652.7" cy="474.1" r="4.5" fill="#9aa8bb" stroke="none" opacity="0.720" />
<circle cx="561.8" cy="553.5" r="4.5" fill="#9aa8bb" stroke="none" opacity="0.720" />
<circle cx="544.6" cy="465.9" r="4.5" fill="#9aa8bb" stroke="none" opacity="0.720" />
<circle cx="663.9" cy="522.1" r="4.5" fill="#9aa8bb" stroke="none" opacity="0.720" />
<circle cx="490.8" cy="530.0" r="4.5" fill="#9aa8bb" stroke="none" opacity="0.720" />
<circle cx="612.9" cy="457.2" r="4.5" fill="#9aa8bb" stroke="none" opacity="0.720" />
<circle cx="607.3" cy="553.4" r="4.5" fill="#9aa8bb" stroke="none" opacity="0.720" />
<circle cx="489.5" cy="474.9" r="4.5" fill="#9aa8bb" stroke="none" opacity="0.720" />
<circle cx="680.3" cy="489.1" r="4.5" fill="#9aa8bb" stroke="none" opacity="0.720" />
<circle cx="532.4" cy="550.2" r="4.5" fill="#9aa8bb" stroke="none" opacity="0.720" />
<circle cx="564.7" cy="446.7" r="4.5" fill="#9aa8bb" stroke="none" opacity="0.720" />
<circle cx="670.2" cy="549.1" r="4.5" fill="#9aa8bb" stroke="none" opacity="0.720" />
<circle cx="474.7" cy="509.9" r="4.5" fill="#9aa8bb" stroke="none" opacity="0.720" />
<circle cx="643.0" cy="463.4" r="4.5" fill="#9aa8bb" stroke="none" opacity="0.720" />
<circle cx="578.6" cy="573.0" r="4.5" fill="#9aa8bb" stroke="none" opacity="0.720" />
<circle cx="498.0" cy="447.9" r="4.5" fill="#9aa8bb" stroke="none" opacity="0.720" />
<circle cx="685.1" cy="511.6" r="4.5" fill="#9aa8bb" stroke="none" opacity="0.720" />
<circle cx="499.7" cy="542.2" r="4.5" fill="#9aa8bb" stroke="none" opacity="0.720" />
<circle cx="603.1" cy="429.5" r="4.5" fill="#9aa8bb" stroke="none" opacity="0.720" />
<circle cx="646.8" cy="572.2" r="4.5" fill="#9aa8bb" stroke="none" opacity="0.720" />
<circle cx="478.1" cy="487.1" r="4.5" fill="#9aa8bb" stroke="none" opacity="0.720" />
<circle cx="679.9" cy="473.8" r="4.5" fill="#9aa8bb" stroke="none" opacity="0.720" />
<circle cx="531.7" cy="583.8" r="4.5" fill="#9aa8bb" stroke="none" opacity="0.720" />
<circle cx="533.0" cy="431.6" r="4.5" fill="#9aa8bb" stroke="none" opacity="0.720" />
<circle cx="677.6" cy="534.4" r="4.5" fill="#9aa8bb" stroke="none" opacity="0.720" />
<circle cx="459.5" cy="527.4" r="4.5" fill="#9aa8bb" stroke="none" opacity="0.720" />
<circle cx="653.9" cy="428.2" r="4.5" fill="#9aa8bb" stroke="none" opacity="0.720" />
<circle cx="605.3" cy="581.1" r="4.5" fill="#9aa8bb" stroke="none" opacity="0.720" />
<circle cx="486.9" cy="463.2" r="4.5" fill="#9aa8bb" stroke="none" opacity="0.720" />
<circle cx="719.5" cy="494.9" r="4.5" fill="#9aa8bb" stroke="none" opacity="0.720" />
<circle cx="483.4" cy="574.3" r="4.5" fill="#9aa8bb" stroke="none" opacity="0.720" />
<circle cx="576.5" cy="428.7" r="4.5" fill="#9aa8bb" stroke="none" opacity="0.720" />
<circle cx="667.2" cy="560.9" r="4.5" fill="#9aa8bb" stroke="none" opacity="0.720" />
<circle cx="427.0" cy="499.4" r="4.5" fill="#9aa8bb" stroke="none" opacity="0.720" />
<circle cx="693.9" cy="447.5" r="4.5" fill="#9aa8bb" stroke="none" opacity="0.720" />
<circle cx="562.0" cy="580.7" r="4.5" fill="#9aa8bb" stroke="none" opacity="0.720" />
<circle cx="502.0" cy="433.4" r="4.5" fill="#9aa8bb" stroke="none" opacity="0.720" />
<circle cx="737.7" cy="528.4" r="4.5" fill="#9aa8bb" stroke="none" opacity="0.720" />
<circle cx="454.9" cy="548.2" r="4.5" fill="#9aa8bb" stroke="none" opacity="0.720" />
<circle cx="620.4" cy="429.8" r="4.5" fill="#9aa8bb" stroke="none" opacity="0.720" />
<circle cx="642.8" cy="592.4" r="4.5" fill="#9aa8bb" stroke="none" opacity="0.720" />
<circle cx="427.7" cy="463.9" r="4.5" fill="#9aa8bb" stroke="none" opacity="0.720" />
<circle cx="711.4" cy="476.8" r="4.5" fill="#9aa8bb" stroke="none" opacity="0.720" />
<circle cx="514.7" cy="579.8" r="4.5" fill="#9aa8bb" stroke="none" opacity="0.720" />
<circle cx="539.3" cy="403.8" r="4.5" fill="#9aa8bb" stroke="none" opacity="0.720" />
<circle cx="717.5" cy="561.5" r="4.5" fill="#9aa8bb" stroke="none" opacity="0.720" />
<circle cx="444.6" cy="518.3" r="4.5" fill="#9aa8bb" stroke="none" opacity="0.720" />
<circle cx="673.6" cy="431.9" r="4.5" fill="#9aa8bb" stroke="none" opacity="0.720" />
<circle cx="592.4" cy="615.3" r="4.5" fill="#9aa8bb" stroke="none" opacity="0.720" />
<circle cx="463.8" cy="436.5" r="4.5" fill="#9aa8bb" stroke="none" opacity="0.720" />
<circle cx="719.5" cy="506.6" r="4.5" fill="#9aa8bb" stroke="none" opacity="0.720" />
<circle cx="455.8" cy="573.2" r="4.5" fill="#9aa8bb" stroke="none" opacity="0.720" />
<circle cx="599.2" cy="392.1" r="4.5" fill="#9aa8bb" stroke="none" opacity="0.720" />
<circle cx="671.8" cy="582.2" r="4.5" fill="#9aa8bb" stroke="none" opacity="0.720" />
<circle cx="435.4" cy="487.4" r="4.5" fill="#9aa8bb" stroke="none" opacity="0.720" />
<circle cx="734.1" cy="446.5" r="4.5" fill="#9aa8bb" stroke="none" opacity="0.720" />
<circle cx="529.6" cy="613.5" r="4.5" fill="#9aa8bb" stroke="none" opacity="0.720" />
<circle cx="513.1" cy="421.3" r="4.5" fill="#9aa8bb" stroke="none" opacity="0.720" />
<circle cx="729.2" cy="540.7" r="4.5" fill="#9aa8bb" stroke="none" opacity="0.720" />
<circle cx="401.3" cy="548.5" r="4.5" fill="#9aa8bb" stroke="none" opacity="0.720" />
<circle cx="657.7" cy="406.5" r="4.5" fill="#9aa8bb" stroke="none" opacity="0.720" />
<circle cx="622.5" cy="594.9" r="4.5" fill="#9aa8bb" stroke="none" opacity="0.720" />
<circle cx="429.7" cy="448.6" r="4.5" fill="#9aa8bb" stroke="none" opacity="0.720" />
<circle cx="774.1" cy="480.8" r="4.5" fill="#9aa8bb" stroke="none" opacity="0.720" />
<circle cx="480.0" cy="590.1" r="4.5" fill="#9aa8bb" stroke="none" opacity="0.720" />
<circle cx="562.6" cy="408.2" r="4.5" fill="#9aa8bb" stroke="none" opacity="0.720" />
<circle cx="724.1" cy="583.2" r="4.5" fill="#9aa8bb" stroke="none" opacity="0.720" />
<circle cx="382.2" cy="507.9" r="4.5" fill="#9aa8bb" stroke="none" opacity="0.720" />
<circle cx="698.1" cy="434.6" r="4.5" fill="#9aa8bb" stroke="none" opacity="0.720" />
<circle cx="569.2" cy="609.4" r="4.5" fill="#9aa8bb" stroke="none" opacity="0.720" />
<circle cx="452.0" cy="406.2" r="4.5" fill="#9aa8bb" stroke="none" opacity="0.720" />
<circle cx="770.3" cy="523.1" r="4.5" fill="#9aa8bb" stroke="none" opacity="0.720" />
<circle cx="445.5" cy="560.9" r="4.5" fill="#9aa8bb" stroke="none" opacity="0.720" />
<circle cx="623.6" cy="394.0" r="4.5" fill="#9aa8bb" stroke="none" opacity="0.720" />
<circle cx="682.0" cy="620.3" r="4.5" fill="#9aa8bb" stroke="none" opacity="0.720" />
<circle cx="405.3" cy="468.2" r="4.5" fill="#9aa8bb" stroke="none" opacity="0.720" />
<circle cx="731.8" cy="463.5" r="4.5" fill="#9aa8bb" stroke="none" opacity="0.720" />
<line x1="528.4" y1="482.5" x2="683.0" y2="460.7" fill="none" stroke="#128b82" stroke-width="10.24" stroke-linecap="round" stroke-linejoin="round" />
<line x1="537.0" y1="543.3" x2="691.6" y2="521.5" fill="none" stroke="#128b82" stroke-width="10.24" stroke-linecap="round" stroke-linejoin="round" />
<line x1="528.4" y1="482.5" x2="537.0" y2="543.3" fill="none" stroke="#128b82" stroke-width="7.68" stroke-linecap="round" stroke-linejoin="round" />
<line x1="466.8" y1="522.2" x2="532.7" y2="512.9" fill="none" stroke="#128b82" stroke-width="8.96" stroke-linecap="round" stroke-linejoin="round" />
<circle cx="520.0" cy="490.0" r="15.0" fill="#128b82" stroke="#182232" stroke-width="2.00" stroke-linecap="round" stroke-linejoin="round" />
<circle cx="704.0" cy="466.0" r="15.0" fill="#128b82" stroke="#182232" stroke-width="2.00" stroke-linecap="round" stroke-linejoin="round" />
<line x1="520.0" y1="490.0" x2="478.0" y2="486.0" fill="none" stroke="#128b82" stroke-width="4.00" stroke-linecap="round" stroke-linejoin="round" />
<polygon points="478.0,486.0 489.6,480.1 488.3,494.0" fill="#128b82" stroke="none" />
<line x1="704.0" y1="466.0" x2="750.0" y2="455.0" fill="none" stroke="#128b82" stroke-width="4.00" stroke-linecap="round" stroke-linejoin="round" />
<polygon points="750.0,455.0 740.9,464.3 737.7,450.8" fill="#128b82" stroke="none" />
<line x1="495.6" y1="334.8" x2="575.4" y2="413.8" fill="none" stroke="#9aa8bb" stroke-width="7.36" stroke-linecap="round" stroke-linejoin="round" opacity="0.520" />
<line x1="464.6" y1="366.2" x2="544.4" y2="445.2" fill="none" stroke="#9aa8bb" stroke-width="7.36" stroke-linecap="round" stroke-linejoin="round" opacity="0.520" />
<line x1="495.6" y1="334.8" x2="464.6" y2="366.2" fill="none" stroke="#9aa8bb" stroke-width="5.52" stroke-linecap="round" stroke-linejoin="round" opacity="0.520" />
<line x1="446.1" y1="316.9" x2="480.1" y2="350.5" fill="none" stroke="#9aa8bb" stroke-width="6.44" stroke-linecap="round" stroke-linejoin="round" opacity="0.520" />
<line x1="649.4" y1="642.8" x2="714.7" y2="551.5" fill="none" stroke="#c94b38" stroke-width="7.36" stroke-linecap="round" stroke-linejoin="round" opacity="0.480" />
<line x1="685.3" y1="668.5" x2="750.6" y2="577.2" fill="none" stroke="#c94b38" stroke-width="7.36" stroke-linecap="round" stroke-linejoin="round" opacity="0.480" />
<line x1="649.4" y1="642.8" x2="685.3" y2="668.5" fill="none" stroke="#c94b38" stroke-width="5.52" stroke-linecap="round" stroke-linejoin="round" opacity="0.480" />
<line x1="639.5" y1="694.6" x2="667.4" y2="655.6" fill="none" stroke="#c94b38" stroke-width="6.44" stroke-linecap="round" stroke-linejoin="round" opacity="0.480" />
<text x="600.0" y="354.0" font-family="Arial, Helvetica, sans-serif" font-size="20" font-weight="700" text-anchor="middle" fill="#128b82" opacity="1.000">balanced antipodal contacts</text>
<rect x="1110.0" y="248.0" width="318.0" height="456.0" rx="6.0" fill="#ffffff" stroke="#d7e0ea" stroke-width="2.00" stroke-linecap="round" stroke-linejoin="round" />
<text x="1142.0" y="304.0" font-family="Arial, Helvetica, sans-serif" font-size="24" font-weight="700" text-anchor="start" fill="#182232" opacity="1.000">Candidate scores</text>
<text x="1144.0" y="396.0" font-family="Arial, Helvetica, sans-serif" font-size="20" font-weight="700" text-anchor="start" fill="#182232" opacity="1.000">A</text>
<rect x="1180.0" y="378.0" width="218.0" height="28.0" rx="4.0" fill="#edf2f7" stroke="none" />
<rect x="1180.0" y="378.0" width="210.0" height="28.0" rx="4.0" fill="#128b82" stroke="none" />
<text x="1380.0" y="399.0" font-family="Arial, Helvetica, sans-serif" font-size="16" font-weight="700" text-anchor="end" fill="#ffffff" opacity="1.000">0.96</text>
<text x="1144.0" y="482.0" font-family="Arial, Helvetica, sans-serif" font-size="20" font-weight="700" text-anchor="start" fill="#182232" opacity="1.000">B</text>
<rect x="1180.0" y="464.0" width="218.0" height="28.0" rx="4.0" fill="#edf2f7" stroke="none" />
<rect x="1180.0" y="464.0" width="124.0" height="28.0" rx="4.0" fill="#d99722" stroke="none" />
<text x="1294.0" y="485.0" font-family="Arial, Helvetica, sans-serif" font-size="16" font-weight="700" text-anchor="end" fill="#ffffff" opacity="1.000">0.57</text>
<text x="1144.0" y="568.0" font-family="Arial, Helvetica, sans-serif" font-size="20" font-weight="700" text-anchor="start" fill="#182232" opacity="1.000">C</text>
<rect x="1180.0" y="550.0" width="218.0" height="28.0" rx="4.0" fill="#edf2f7" stroke="none" />
<rect x="1180.0" y="550.0" width="70.0" height="28.0" rx="4.0" fill="#c94b38" stroke="none" />
<text x="1240.0" y="571.0" font-family="Arial, Helvetica, sans-serif" font-size="16" font-weight="700" text-anchor="end" fill="#ffffff" opacity="1.000">0.32</text>
<text x="1142.0" y="650.0" font-family="Arial, Helvetica, sans-serif" font-size="16" font-weight="700" text-anchor="start" fill="#697586" opacity="1.000">high score = contact normals oppose each other</text>
</svg>
