<svg xmlns="http://www.w3.org/2000/svg" width="1600" height="900" viewBox="0 0 1600 900" data-rml-style="technical-svg-v1">
  <title>Robotic Manipulation Learning Concept Illustration</title>
  <desc>05 Motion Planning with RRT. Random samples grow a collision-free tree until a short path reaches the goal.</desc>
  <metadata>
    Canonical Colab concept asset. Generated by tools/generate_colab_svg_illustrations.py.
    Visual system: cool engineering paper, restrained robotics palette, shared line widths,
    large readable primitives, no photo textures, no random image-generation artifacts.
    Use the SVG as the source of truth; PNG exports are for notebook and static site display.
  </metadata>
  <defs>
    <filter id="soft-shadow" x="-10%" y="-10%" width="120%" height="120%">
      <feDropShadow dx="0" dy="10" stdDeviation="12" flood-color="#182232" flood-opacity="0.12"/>
    </filter>
  </defs>
  <rect x="0.0" y="0.0" width="1600.0" height="900.0" rx="0.0" fill="#f4f7fb" stroke="none" />
<line x1="80.0" y1="0.0" x2="80.0" y2="900.0" fill="none" stroke="#e8eef5" stroke-width="1.00" stroke-linecap="round" stroke-linejoin="round" />
<line x1="160.0" y1="0.0" x2="160.0" y2="900.0" fill="none" stroke="#e8eef5" stroke-width="1.00" stroke-linecap="round" stroke-linejoin="round" />
<line x1="240.0" y1="0.0" x2="240.0" y2="900.0" fill="none" stroke="#e8eef5" stroke-width="1.00" stroke-linecap="round" stroke-linejoin="round" />
<line x1="320.0" y1="0.0" x2="320.0" y2="900.0" fill="none" stroke="#e8eef5" stroke-width="1.00" stroke-linecap="round" stroke-linejoin="round" />
<line x1="400.0" y1="0.0" x2="400.0" y2="900.0" fill="none" stroke="#e8eef5" stroke-width="1.00" stroke-linecap="round" stroke-linejoin="round" />
<line x1="480.0" y1="0.0" x2="480.0" y2="900.0" fill="none" stroke="#e8eef5" stroke-width="1.00" stroke-linecap="round" stroke-linejoin="round" />
<line x1="560.0" y1="0.0" x2="560.0" y2="900.0" fill="none" stroke="#e8eef5" stroke-width="1.00" stroke-linecap="round" stroke-linejoin="round" />
<line x1="640.0" y1="0.0" x2="640.0" y2="900.0" fill="none" stroke="#e8eef5" stroke-width="1.00" stroke-linecap="round" stroke-linejoin="round" />
<line x1="720.0" y1="0.0" x2="720.0" y2="900.0" fill="none" stroke="#e8eef5" stroke-width="1.00" stroke-linecap="round" stroke-linejoin="round" />
<line x1="800.0" y1="0.0" x2="800.0" y2="900.0" fill="none" stroke="#e8eef5" stroke-width="1.00" stroke-linecap="round" stroke-linejoin="round" />
<line x1="880.0" y1="0.0" x2="880.0" y2="900.0" fill="none" stroke="#e8eef5" stroke-width="1.00" stroke-linecap="round" stroke-linejoin="round" />
<line x1="960.0" y1="0.0" x2="960.0" y2="900.0" fill="none" stroke="#e8eef5" stroke-width="1.00" stroke-linecap="round" stroke-linejoin="round" />
<line x1="1040.0" y1="0.0" x2="1040.0" y2="900.0" fill="none" stroke="#e8eef5" stroke-width="1.00" stroke-linecap="round" stroke-linejoin="round" />
<line x1="1120.0" y1="0.0" x2="1120.0" y2="900.0" fill="none" stroke="#e8eef5" stroke-width="1.00" stroke-linecap="round" stroke-linejoin="round" />
<line x1="1200.0" y1="0.0" x2="1200.0" y2="900.0" fill="none" stroke="#e8eef5" stroke-width="1.00" stroke-linecap="round" stroke-linejoin="round" />
<line x1="1280.0" y1="0.0" x2="1280.0" y2="900.0" fill="none" stroke="#e8eef5" stroke-width="1.00" stroke-linecap="round" stroke-linejoin="round" />
<line x1="1360.0" y1="0.0" x2="1360.0" y2="900.0" fill="none" stroke="#e8eef5" stroke-width="1.00" stroke-linecap="round" stroke-linejoin="round" />
<line x1="1440.0" y1="0.0" x2="1440.0" y2="900.0" fill="none" stroke="#e8eef5" stroke-width="1.00" stroke-linecap="round" stroke-linejoin="round" />
<line x1="1520.0" y1="0.0" x2="1520.0" y2="900.0" fill="none" stroke="#e8eef5" stroke-width="1.00" stroke-linecap="round" stroke-linejoin="round" />
<line x1="0.0" y1="80.0" x2="1600.0" y2="80.0" fill="none" stroke="#e8eef5" stroke-width="1.00" stroke-linecap="round" stroke-linejoin="round" />
<line x1="0.0" y1="160.0" x2="1600.0" y2="160.0" fill="none" stroke="#e8eef5" stroke-width="1.00" stroke-linecap="round" stroke-linejoin="round" />
<line x1="0.0" y1="240.0" x2="1600.0" y2="240.0" fill="none" stroke="#e8eef5" stroke-width="1.00" stroke-linecap="round" stroke-linejoin="round" />
<line x1="0.0" y1="320.0" x2="1600.0" y2="320.0" fill="none" stroke="#e8eef5" stroke-width="1.00" stroke-linecap="round" stroke-linejoin="round" />
<line x1="0.0" y1="400.0" x2="1600.0" y2="400.0" fill="none" stroke="#e8eef5" stroke-width="1.00" stroke-linecap="round" stroke-linejoin="round" />
<line x1="0.0" y1="480.0" x2="1600.0" y2="480.0" fill="none" stroke="#e8eef5" stroke-width="1.00" stroke-linecap="round" stroke-linejoin="round" />
<line x1="0.0" y1="560.0" x2="1600.0" y2="560.0" fill="none" stroke="#e8eef5" stroke-width="1.00" stroke-linecap="round" stroke-linejoin="round" />
<line x1="0.0" y1="640.0" x2="1600.0" y2="640.0" fill="none" stroke="#e8eef5" stroke-width="1.00" stroke-linecap="round" stroke-linejoin="round" />
<line x1="0.0" y1="720.0" x2="1600.0" y2="720.0" fill="none" stroke="#e8eef5" stroke-width="1.00" stroke-linecap="round" stroke-linejoin="round" />
<line x1="0.0" y1="800.0" x2="1600.0" y2="800.0" fill="none" stroke="#e8eef5" stroke-width="1.00" stroke-linecap="round" stroke-linejoin="round" />
<line x1="0.0" y1="880.0" x2="1600.0" y2="880.0" fill="none" stroke="#e8eef5" stroke-width="1.00" stroke-linecap="round" stroke-linejoin="round" />
<line x1="160.0" y1="184.0" x2="160.0" y2="820.0" fill="none" stroke="#d7e0ea" stroke-width="1.20" stroke-linecap="round" stroke-linejoin="round" opacity="0.750" />
<line x1="480.0" y1="184.0" x2="480.0" y2="820.0" fill="none" stroke="#d7e0ea" stroke-width="1.20" stroke-linecap="round" stroke-linejoin="round" opacity="0.750" />
<line x1="800.0" y1="184.0" x2="800.0" y2="820.0" fill="none" stroke="#d7e0ea" stroke-width="1.20" stroke-linecap="round" stroke-linejoin="round" opacity="0.750" />
<line x1="1120.0" y1="184.0" x2="1120.0" y2="820.0" fill="none" stroke="#d7e0ea" stroke-width="1.20" stroke-linecap="round" stroke-linejoin="round" opacity="0.750" />
<line x1="1440.0" y1="184.0" x2="1440.0" y2="820.0" fill="none" stroke="#d7e0ea" stroke-width="1.20" stroke-linecap="round" stroke-linejoin="round" opacity="0.750" />
<rect x="52.0" y="52.0" width="1496.0" height="796.0" rx="6.0" fill="#ffffff" stroke="#d7e0ea" stroke-width="2.00" stroke-linecap="round" stroke-linejoin="round" />
<rect x="52.0" y="52.0" width="1496.0" height="106.0" rx="6.0" fill="#ffffff" stroke="#d7e0ea" stroke-width="1.00" stroke-linecap="round" stroke-linejoin="round" />
<rect x="86.0" y="78.0" width="80.0" height="52.0" rx="4.0" fill="#182232" stroke="none" />
<text x="126.0" y="115.0" font-family="Arial, Helvetica, sans-serif" font-size="28" font-weight="700" text-anchor="middle" fill="#ffffff" opacity="1.000">05</text>
<text x="190.0" y="104.0" font-family="Arial, Helvetica, sans-serif" font-size="40" font-weight="700" text-anchor="start" fill="#182232" opacity="1.000">Motion Planning with RRT</text>
<text x="190.0" y="137.0" font-family="Arial, Helvetica, sans-serif" font-size="22" font-weight="500" text-anchor="start" fill="#697586" opacity="1.000">Random samples grow a collision-free tree until a short path reaches the goal.</text>
<text x="1355.0" y="103.0" font-family="Arial, Helvetica, sans-serif" font-size="18" font-weight="700" text-anchor="end" fill="#697586" opacity="1.000">RML COLAB</text>
<text x="1355.0" y="131.0" font-family="Arial, Helvetica, sans-serif" font-size="16" font-weight="500" text-anchor="end" fill="#9aa8bb" opacity="1.000">concept map</text>
<rect x="1385.0" y="82.0" width="96.0" height="46.0" rx="4.0" fill="#2d6cdf" stroke="none" />
<text x="1433.0" y="113.0" font-family="Arial, Helvetica, sans-serif" font-size="18" font-weight="700" text-anchor="middle" fill="#ffffff" opacity="1.000">RUN</text>
<circle cx="94.0" cy="812.0" r="8.0" fill="#2d6cdf" stroke="none" />
<text x="110.0" y="819.0" font-family="Arial, Helvetica, sans-serif" font-size="15" font-weight="700" text-anchor="start" fill="#697586" opacity="1.000">state</text>
<circle cx="212.0" cy="812.0" r="8.0" fill="#d99722" stroke="none" />
<text x="228.0" y="819.0" font-family="Arial, Helvetica, sans-serif" font-size="15" font-weight="700" text-anchor="start" fill="#697586" opacity="1.000">target</text>
<circle cx="330.0" cy="812.0" r="8.0" fill="#c94b38" stroke="none" />
<text x="346.0" y="819.0" font-family="Arial, Helvetica, sans-serif" font-size="15" font-weight="700" text-anchor="start" fill="#697586" opacity="1.000">error</text>
<circle cx="448.0" cy="812.0" r="8.0" fill="#128b82" stroke="none" />
<text x="464.0" y="819.0" font-family="Arial, Helvetica, sans-serif" font-size="15" font-weight="700" text-anchor="start" fill="#697586" opacity="1.000">policy</text>
<rect x="120.0" y="220.0" width="900.0" height="520.0" rx="6.0" fill="#f9fbfe" stroke="#d7e0ea" stroke-width="2.00" stroke-linecap="round" stroke-linejoin="round" />
<circle cx="565.0" cy="482.0" r="98.0" fill="#f2c8bf" stroke="#c94b38" stroke-width="3.00" stroke-linecap="round" stroke-linejoin="round" opacity="0.900" />
<text x="565.0" y="488.0" font-family="Arial, Helvetica, sans-serif" font-size="17" font-weight="700" text-anchor="middle" fill="#c94b38" opacity="1.000">obstacle</text>
<circle cx="214.0" cy="640.0" r="22.0" fill="#3f8f55" stroke="#182232" stroke-width="3.00" stroke-linecap="round" stroke-linejoin="round" />
<circle cx="908.0" cy="318.0" r="22.0" fill="#d99722" stroke="#182232" stroke-width="3.00" stroke-linecap="round" stroke-linejoin="round" />
<text x="214.0" y="692.0" font-family="Arial, Helvetica, sans-serif" font-size="17" font-weight="700" text-anchor="middle" fill="#3f8f55" opacity="1.000">start</text>
<text x="908.0" y="284.0" font-family="Arial, Helvetica, sans-serif" font-size="17" font-weight="700" text-anchor="middle" fill="#d99722" opacity="1.000">goal</text>
<circle cx="310.0" cy="595.0" r="4.5" fill="#9aa8bb" stroke="none" opacity="0.620" />
<line x1="214.0" y1="640.0" x2="310.0" y2="595.0" fill="none" stroke="#2d6cdf" stroke-width="3.00" stroke-linecap="round" stroke-linejoin="round" opacity="0.580" />
<circle cx="365.0" cy="518.0" r="4.5" fill="#9aa8bb" stroke="none" opacity="0.620" />
<line x1="310.0" y1="595.0" x2="365.0" y2="518.0" fill="none" stroke="#2d6cdf" stroke-width="3.00" stroke-linecap="round" stroke-linejoin="round" opacity="0.580" />
<circle cx="280.0" cy="450.0" r="4.5" fill="#9aa8bb" stroke="none" opacity="0.620" />
<line x1="214.0" y1="640.0" x2="280.0" y2="450.0" fill="none" stroke="#2d6cdf" stroke-width="3.00" stroke-linecap="round" stroke-linejoin="round" opacity="0.580" />
<circle cx="455.0" cy="560.0" r="4.5" fill="#9aa8bb" stroke="none" opacity="0.620" />
<line x1="310.0" y1="595.0" x2="455.0" y2="560.0" fill="none" stroke="#2d6cdf" stroke-width="3.00" stroke-linecap="round" stroke-linejoin="round" opacity="0.580" />
<circle cx="500.0" cy="638.0" r="4.5" fill="#9aa8bb" stroke="none" opacity="0.620" />
<line x1="455.0" y1="560.0" x2="500.0" y2="638.0" fill="none" stroke="#2d6cdf" stroke-width="3.00" stroke-linecap="round" stroke-linejoin="round" opacity="0.580" />
<circle cx="650.0" cy="675.0" r="4.5" fill="#9aa8bb" stroke="none" opacity="0.620" />
<line x1="500.0" y1="638.0" x2="650.0" y2="675.0" fill="none" stroke="#2d6cdf" stroke-width="3.00" stroke-linecap="round" stroke-linejoin="round" opacity="0.580" />
<circle cx="728.0" cy="605.0" r="4.5" fill="#9aa8bb" stroke="none" opacity="0.620" />
<line x1="650.0" y1="675.0" x2="728.0" y2="605.0" fill="none" stroke="#2d6cdf" stroke-width="3.00" stroke-linecap="round" stroke-linejoin="round" opacity="0.580" />
<circle cx="780.0" cy="515.0" r="4.5" fill="#9aa8bb" stroke="none" opacity="0.620" />
<line x1="728.0" y1="605.0" x2="780.0" y2="515.0" fill="none" stroke="#2d6cdf" stroke-width="3.00" stroke-linecap="round" stroke-linejoin="round" opacity="0.580" />
<circle cx="820.0" cy="430.0" r="4.5" fill="#9aa8bb" stroke="none" opacity="0.620" />
<line x1="780.0" y1="515.0" x2="820.0" y2="430.0" fill="none" stroke="#2d6cdf" stroke-width="3.00" stroke-linecap="round" stroke-linejoin="round" opacity="0.580" />
<circle cx="904.0" cy="380.0" r="4.5" fill="#9aa8bb" stroke="none" opacity="0.620" />
<line x1="820.0" y1="430.0" x2="904.0" y2="380.0" fill="none" stroke="#2d6cdf" stroke-width="3.00" stroke-linecap="round" stroke-linejoin="round" opacity="0.580" />
<circle cx="740.0" cy="330.0" r="4.5" fill="#9aa8bb" stroke="none" opacity="0.620" />
<line x1="780.0" y1="515.0" x2="740.0" y2="330.0" fill="none" stroke="#2d6cdf" stroke-width="3.00" stroke-linecap="round" stroke-linejoin="round" opacity="0.580" />
<circle cx="625.0" cy="315.0" r="4.5" fill="#9aa8bb" stroke="none" opacity="0.620" />
<line x1="904.0" y1="380.0" x2="625.0" y2="315.0" fill="none" stroke="#2d6cdf" stroke-width="3.00" stroke-linecap="round" stroke-linejoin="round" opacity="0.580" />
<circle cx="458.0" cy="322.0" r="4.5" fill="#9aa8bb" stroke="none" opacity="0.620" />
<line x1="625.0" y1="315.0" x2="458.0" y2="322.0" fill="none" stroke="#2d6cdf" stroke-width="3.00" stroke-linecap="round" stroke-linejoin="round" opacity="0.580" />
<circle cx="350.0" cy="370.0" r="4.5" fill="#9aa8bb" stroke="none" opacity="0.620" />
<line x1="458.0" y1="322.0" x2="350.0" y2="370.0" fill="none" stroke="#2d6cdf" stroke-width="3.00" stroke-linecap="round" stroke-linejoin="round" opacity="0.580" />
<circle cx="865.0" cy="570.0" r="4.5" fill="#9aa8bb" stroke="none" opacity="0.620" />
<line x1="728.0" y1="605.0" x2="865.0" y2="570.0" fill="none" stroke="#2d6cdf" stroke-width="3.00" stroke-linecap="round" stroke-linejoin="round" opacity="0.580" />
<circle cx="920.0" cy="500.0" r="4.5" fill="#9aa8bb" stroke="none" opacity="0.620" />
<line x1="865.0" y1="570.0" x2="920.0" y2="500.0" fill="none" stroke="#2d6cdf" stroke-width="3.00" stroke-linecap="round" stroke-linejoin="round" opacity="0.580" />
<circle cx="710.0" cy="240.0" r="4.5" fill="#9aa8bb" stroke="none" opacity="0.620" />
<line x1="740.0" y1="330.0" x2="710.0" y2="240.0" fill="none" stroke="#2d6cdf" stroke-width="3.00" stroke-linecap="round" stroke-linejoin="round" opacity="0.580" />
<circle cx="500.0" cy="260.0" r="4.5" fill="#9aa8bb" stroke="none" opacity="0.620" />
<line x1="458.0" y1="322.0" x2="500.0" y2="260.0" fill="none" stroke="#2d6cdf" stroke-width="3.00" stroke-linecap="round" stroke-linejoin="round" opacity="0.580" />
<polyline points="214.0,640.0 310.0,595.0 455.0,560.0 500.0,638.0 650.0,675.0 728.0,605.0 780.0,515.0 820.0,430.0 904.0,380.0 908.0,318.0" fill="none" stroke="#128b82" stroke-width="9.00" stroke-linecap="round" stroke-linejoin="round" />
<circle cx="214.0" cy="640.0" r="8.0" fill="#128b82" stroke="none" />
<circle cx="310.0" cy="595.0" r="8.0" fill="#128b82" stroke="none" />
<circle cx="455.0" cy="560.0" r="8.0" fill="#128b82" stroke="none" />
<circle cx="500.0" cy="638.0" r="8.0" fill="#128b82" stroke="none" />
<circle cx="650.0" cy="675.0" r="8.0" fill="#128b82" stroke="none" />
<circle cx="728.0" cy="605.0" r="8.0" fill="#128b82" stroke="none" />
<circle cx="780.0" cy="515.0" r="8.0" fill="#128b82" stroke="none" />
<circle cx="820.0" cy="430.0" r="8.0" fill="#128b82" stroke="none" />
<circle cx="904.0" cy="380.0" r="8.0" fill="#128b82" stroke="none" />
<circle cx="908.0" cy="318.0" r="8.0" fill="#128b82" stroke="none" />
<rect x="1095.0" y="248.0" width="335.0" height="450.0" rx="6.0" fill="#ffffff" stroke="#d7e0ea" stroke-width="2.00" stroke-linecap="round" stroke-linejoin="round" />
<text x="1128.0" y="306.0" font-family="Arial, Helvetica, sans-serif" font-size="24" font-weight="700" text-anchor="start" fill="#182232" opacity="1.000">Sampling planner</text>
<rect x="1130.0" y="350.0" width="250.0" height="58.0" rx="4.0" fill="#f5f8fc" stroke="#d7e0ea" stroke-width="1.00" stroke-linecap="round" stroke-linejoin="round" />
<text x="1150.0" y="381.0" font-family="Arial, Helvetica, sans-serif" font-size="17" font-weight="700" text-anchor="start" fill="#697586" opacity="1.000">samples</text>
<text x="1362.0" y="381.0" font-family="Arial, Helvetica, sans-serif" font-size="20" font-weight="700" text-anchor="end" fill="#2d6cdf" opacity="1.000">18</text>
<rect x="1130.0" y="444.0" width="250.0" height="58.0" rx="4.0" fill="#f5f8fc" stroke="#d7e0ea" stroke-width="1.00" stroke-linecap="round" stroke-linejoin="round" />
<text x="1150.0" y="475.0" font-family="Arial, Helvetica, sans-serif" font-size="17" font-weight="700" text-anchor="start" fill="#697586" opacity="1.000">collision checks</text>
<text x="1362.0" y="475.0" font-family="Arial, Helvetica, sans-serif" font-size="20" font-weight="700" text-anchor="end" fill="#c94b38" opacity="1.000">many</text>
<rect x="1130.0" y="538.0" width="250.0" height="58.0" rx="4.0" fill="#f5f8fc" stroke="#d7e0ea" stroke-width="1.00" stroke-linecap="round" stroke-linejoin="round" />
<text x="1150.0" y="569.0" font-family="Arial, Helvetica, sans-serif" font-size="17" font-weight="700" text-anchor="start" fill="#697586" opacity="1.000">returned path</text>
<text x="1362.0" y="569.0" font-family="Arial, Helvetica, sans-serif" font-size="20" font-weight="700" text-anchor="end" fill="#128b82" opacity="1.000">1</text>
<polyline points="1140.0,626.0 1196.0,604.0 1240.0,618.0 1298.0,580.0 1374.0,594.0" fill="none" stroke="#128b82" stroke-width="5.00" stroke-linecap="round" stroke-linejoin="round" />
</svg>
