<svg xmlns="http://www.w3.org/2000/svg" width="1600" height="900" viewBox="0 0 1600 900" data-rml-style="technical-svg-v1">
  <title>Robotic Manipulation Learning Concept Illustration</title>
  <desc>06 PD and Impedance Control. Virtual stiffness and damping turn pose error into a controlled response.</desc>
  <metadata>
    Canonical Colab concept asset. Generated by tools/generate_colab_svg_illustrations.py.
    Visual system: cool engineering paper, restrained robotics palette, shared line widths,
    large readable primitives, no photo textures, no random image-generation artifacts.
    Use the SVG as the source of truth; PNG exports are for notebook and static site display.
  </metadata>
  <defs>
    <filter id="soft-shadow" x="-10%" y="-10%" width="120%" height="120%">
      <feDropShadow dx="0" dy="10" stdDeviation="12" flood-color="#182232" flood-opacity="0.12"/>
    </filter>
  </defs>
  <rect x="0.0" y="0.0" width="1600.0" height="900.0" rx="0.0" fill="#f4f7fb" stroke="none" />
<line x1="80.0" y1="0.0" x2="80.0" y2="900.0" fill="none" stroke="#e8eef5" stroke-width="1.00" stroke-linecap="round" stroke-linejoin="round" />
<line x1="160.0" y1="0.0" x2="160.0" y2="900.0" fill="none" stroke="#e8eef5" stroke-width="1.00" stroke-linecap="round" stroke-linejoin="round" />
<line x1="240.0" y1="0.0" x2="240.0" y2="900.0" fill="none" stroke="#e8eef5" stroke-width="1.00" stroke-linecap="round" stroke-linejoin="round" />
<line x1="320.0" y1="0.0" x2="320.0" y2="900.0" fill="none" stroke="#e8eef5" stroke-width="1.00" stroke-linecap="round" stroke-linejoin="round" />
<line x1="400.0" y1="0.0" x2="400.0" y2="900.0" fill="none" stroke="#e8eef5" stroke-width="1.00" stroke-linecap="round" stroke-linejoin="round" />
<line x1="480.0" y1="0.0" x2="480.0" y2="900.0" fill="none" stroke="#e8eef5" stroke-width="1.00" stroke-linecap="round" stroke-linejoin="round" />
<line x1="560.0" y1="0.0" x2="560.0" y2="900.0" fill="none" stroke="#e8eef5" stroke-width="1.00" stroke-linecap="round" stroke-linejoin="round" />
<line x1="640.0" y1="0.0" x2="640.0" y2="900.0" fill="none" stroke="#e8eef5" stroke-width="1.00" stroke-linecap="round" stroke-linejoin="round" />
<line x1="720.0" y1="0.0" x2="720.0" y2="900.0" fill="none" stroke="#e8eef5" stroke-width="1.00" stroke-linecap="round" stroke-linejoin="round" />
<line x1="800.0" y1="0.0" x2="800.0" y2="900.0" fill="none" stroke="#e8eef5" stroke-width="1.00" stroke-linecap="round" stroke-linejoin="round" />
<line x1="880.0" y1="0.0" x2="880.0" y2="900.0" fill="none" stroke="#e8eef5" stroke-width="1.00" stroke-linecap="round" stroke-linejoin="round" />
<line x1="960.0" y1="0.0" x2="960.0" y2="900.0" fill="none" stroke="#e8eef5" stroke-width="1.00" stroke-linecap="round" stroke-linejoin="round" />
<line x1="1040.0" y1="0.0" x2="1040.0" y2="900.0" fill="none" stroke="#e8eef5" stroke-width="1.00" stroke-linecap="round" stroke-linejoin="round" />
<line x1="1120.0" y1="0.0" x2="1120.0" y2="900.0" fill="none" stroke="#e8eef5" stroke-width="1.00" stroke-linecap="round" stroke-linejoin="round" />
<line x1="1200.0" y1="0.0" x2="1200.0" y2="900.0" fill="none" stroke="#e8eef5" stroke-width="1.00" stroke-linecap="round" stroke-linejoin="round" />
<line x1="1280.0" y1="0.0" x2="1280.0" y2="900.0" fill="none" stroke="#e8eef5" stroke-width="1.00" stroke-linecap="round" stroke-linejoin="round" />
<line x1="1360.0" y1="0.0" x2="1360.0" y2="900.0" fill="none" stroke="#e8eef5" stroke-width="1.00" stroke-linecap="round" stroke-linejoin="round" />
<line x1="1440.0" y1="0.0" x2="1440.0" y2="900.0" fill="none" stroke="#e8eef5" stroke-width="1.00" stroke-linecap="round" stroke-linejoin="round" />
<line x1="1520.0" y1="0.0" x2="1520.0" y2="900.0" fill="none" stroke="#e8eef5" stroke-width="1.00" stroke-linecap="round" stroke-linejoin="round" />
<line x1="0.0" y1="80.0" x2="1600.0" y2="80.0" fill="none" stroke="#e8eef5" stroke-width="1.00" stroke-linecap="round" stroke-linejoin="round" />
<line x1="0.0" y1="160.0" x2="1600.0" y2="160.0" fill="none" stroke="#e8eef5" stroke-width="1.00" stroke-linecap="round" stroke-linejoin="round" />
<line x1="0.0" y1="240.0" x2="1600.0" y2="240.0" fill="none" stroke="#e8eef5" stroke-width="1.00" stroke-linecap="round" stroke-linejoin="round" />
<line x1="0.0" y1="320.0" x2="1600.0" y2="320.0" fill="none" stroke="#e8eef5" stroke-width="1.00" stroke-linecap="round" stroke-linejoin="round" />
<line x1="0.0" y1="400.0" x2="1600.0" y2="400.0" fill="none" stroke="#e8eef5" stroke-width="1.00" stroke-linecap="round" stroke-linejoin="round" />
<line x1="0.0" y1="480.0" x2="1600.0" y2="480.0" fill="none" stroke="#e8eef5" stroke-width="1.00" stroke-linecap="round" stroke-linejoin="round" />
<line x1="0.0" y1="560.0" x2="1600.0" y2="560.0" fill="none" stroke="#e8eef5" stroke-width="1.00" stroke-linecap="round" stroke-linejoin="round" />
<line x1="0.0" y1="640.0" x2="1600.0" y2="640.0" fill="none" stroke="#e8eef5" stroke-width="1.00" stroke-linecap="round" stroke-linejoin="round" />
<line x1="0.0" y1="720.0" x2="1600.0" y2="720.0" fill="none" stroke="#e8eef5" stroke-width="1.00" stroke-linecap="round" stroke-linejoin="round" />
<line x1="0.0" y1="800.0" x2="1600.0" y2="800.0" fill="none" stroke="#e8eef5" stroke-width="1.00" stroke-linecap="round" stroke-linejoin="round" />
<line x1="0.0" y1="880.0" x2="1600.0" y2="880.0" fill="none" stroke="#e8eef5" stroke-width="1.00" stroke-linecap="round" stroke-linejoin="round" />
<line x1="160.0" y1="184.0" x2="160.0" y2="820.0" fill="none" stroke="#d7e0ea" stroke-width="1.20" stroke-linecap="round" stroke-linejoin="round" opacity="0.750" />
<line x1="480.0" y1="184.0" x2="480.0" y2="820.0" fill="none" stroke="#d7e0ea" stroke-width="1.20" stroke-linecap="round" stroke-linejoin="round" opacity="0.750" />
<line x1="800.0" y1="184.0" x2="800.0" y2="820.0" fill="none" stroke="#d7e0ea" stroke-width="1.20" stroke-linecap="round" stroke-linejoin="round" opacity="0.750" />
<line x1="1120.0" y1="184.0" x2="1120.0" y2="820.0" fill="none" stroke="#d7e0ea" stroke-width="1.20" stroke-linecap="round" stroke-linejoin="round" opacity="0.750" />
<line x1="1440.0" y1="184.0" x2="1440.0" y2="820.0" fill="none" stroke="#d7e0ea" stroke-width="1.20" stroke-linecap="round" stroke-linejoin="round" opacity="0.750" />
<rect x="52.0" y="52.0" width="1496.0" height="796.0" rx="6.0" fill="#ffffff" stroke="#d7e0ea" stroke-width="2.00" stroke-linecap="round" stroke-linejoin="round" />
<rect x="52.0" y="52.0" width="1496.0" height="106.0" rx="6.0" fill="#ffffff" stroke="#d7e0ea" stroke-width="1.00" stroke-linecap="round" stroke-linejoin="round" />
<rect x="86.0" y="78.0" width="80.0" height="52.0" rx="4.0" fill="#182232" stroke="none" />
<text x="126.0" y="115.0" font-family="Arial, Helvetica, sans-serif" font-size="28" font-weight="700" text-anchor="middle" fill="#ffffff" opacity="1.000">06</text>
<text x="190.0" y="104.0" font-family="Arial, Helvetica, sans-serif" font-size="40" font-weight="700" text-anchor="start" fill="#182232" opacity="1.000">PD and Impedance Control</text>
<text x="190.0" y="137.0" font-family="Arial, Helvetica, sans-serif" font-size="22" font-weight="500" text-anchor="start" fill="#697586" opacity="1.000">Virtual stiffness and damping turn pose error into a controlled response.</text>
<text x="1355.0" y="103.0" font-family="Arial, Helvetica, sans-serif" font-size="18" font-weight="700" text-anchor="end" fill="#697586" opacity="1.000">RML COLAB</text>
<text x="1355.0" y="131.0" font-family="Arial, Helvetica, sans-serif" font-size="16" font-weight="500" text-anchor="end" fill="#9aa8bb" opacity="1.000">concept map</text>
<rect x="1385.0" y="82.0" width="96.0" height="46.0" rx="4.0" fill="#2d6cdf" stroke="none" />
<text x="1433.0" y="113.0" font-family="Arial, Helvetica, sans-serif" font-size="18" font-weight="700" text-anchor="middle" fill="#ffffff" opacity="1.000">RUN</text>
<circle cx="94.0" cy="812.0" r="8.0" fill="#2d6cdf" stroke="none" />
<text x="110.0" y="819.0" font-family="Arial, Helvetica, sans-serif" font-size="15" font-weight="700" text-anchor="start" fill="#697586" opacity="1.000">state</text>
<circle cx="212.0" cy="812.0" r="8.0" fill="#d99722" stroke="none" />
<text x="228.0" y="819.0" font-family="Arial, Helvetica, sans-serif" font-size="15" font-weight="700" text-anchor="start" fill="#697586" opacity="1.000">target</text>
<circle cx="330.0" cy="812.0" r="8.0" fill="#c94b38" stroke="none" />
<text x="346.0" y="819.0" font-family="Arial, Helvetica, sans-serif" font-size="15" font-weight="700" text-anchor="start" fill="#697586" opacity="1.000">error</text>
<circle cx="448.0" cy="812.0" r="8.0" fill="#128b82" stroke="none" />
<text x="464.0" y="819.0" font-family="Arial, Helvetica, sans-serif" font-size="15" font-weight="700" text-anchor="start" fill="#697586" opacity="1.000">policy</text>
<rect x="110.0" y="236.0" width="900.0" height="500.0" rx="6.0" fill="#f9fbfe" stroke="#d7e0ea" stroke-width="2.00" stroke-linecap="round" stroke-linejoin="round" />
<line x1="220.0" y1="610.0" x2="880.0" y2="610.0" fill="none" stroke="#d7e0ea" stroke-width="3.00" stroke-linecap="round" stroke-linejoin="round" />
<rect x="720.0" y="474.0" width="104.0" height="104.0" rx="6.0" fill="#2d6cdf" stroke="#182232" stroke-width="4.00" stroke-linecap="round" stroke-linejoin="round" />
<text x="772.0" y="535.0" font-family="Arial, Helvetica, sans-serif" font-size="32" font-weight="700" text-anchor="middle" fill="#ffffff" opacity="1.000">x</text>
<circle cx="330.0" cy="526.0" r="26.0" fill="#d99722" stroke="#182232" stroke-width="3.00" stroke-linecap="round" stroke-linejoin="round" />
<text x="330.0" y="488.0" font-family="Arial, Helvetica, sans-serif" font-size="18" font-weight="700" text-anchor="middle" fill="#d99722" opacity="1.000">target</text>
<polyline points="356.0,526.0 376.2,552.0 396.4,500.0 416.7,552.0 436.9,500.0 457.1,552.0 477.3,500.0 497.6,552.0 517.8,500.0 538.0,552.0 558.2,500.0 578.4,552.0 598.7,500.0 618.9,552.0 639.1,500.0 659.3,552.0 679.6,500.0 699.8,552.0 720.0,526.0" fill="none" stroke="#128b82" stroke-width="5.00" stroke-linecap="round" stroke-linejoin="round" />
<rect x="485.0" y="568.0" width="136.0" height="42.0" rx="4.0" fill="#e8eef5" stroke="#9aa8bb" stroke-width="3.00" stroke-linecap="round" stroke-linejoin="round" />
<line x1="505.0" y1="568.0" x2="505.0" y2="610.0" fill="none" stroke="#9aa8bb" stroke-width="6.00" stroke-linecap="round" stroke-linejoin="round" />
<line x1="600.0" y1="568.0" x2="600.0" y2="610.0" fill="none" stroke="#9aa8bb" stroke-width="6.00" stroke-linecap="round" stroke-linejoin="round" />
<line x1="824.0" y1="526.0" x2="900.0" y2="526.0" fill="none" stroke="#c94b38" stroke-width="5.00" stroke-linecap="round" stroke-linejoin="round" />
<polygon points="900.0,526.0 884.8,535.6 884.8,516.4" fill="#c94b38" stroke="none" />
<text x="872.0" y="496.0" font-family="Arial, Helvetica, sans-serif" font-size="17" font-weight="700" text-anchor="middle" fill="#c94b38" opacity="1.000">control effort</text>
<text x="536.0" y="452.0" font-family="Arial, Helvetica, sans-serif" font-size="21" font-weight="700" text-anchor="middle" fill="#128b82" opacity="1.000">virtual stiffness + damping</text>
<rect x="1078.0" y="248.0" width="360.0" height="450.0" rx="6.0" fill="#ffffff" stroke="#d7e0ea" stroke-width="2.00" stroke-linecap="round" stroke-linejoin="round" />
<text x="1112.0" y="304.0" font-family="Arial, Helvetica, sans-serif" font-size="24" font-weight="700" text-anchor="start" fill="#182232" opacity="1.000">Step response</text>
<line x1="1128.0" y1="628.0" x2="1378.0" y2="628.0" fill="none" stroke="#d7e0ea" stroke-width="3.00" stroke-linecap="round" stroke-linejoin="round" />
<line x1="1128.0" y1="628.0" x2="1128.0" y2="388.0" fill="none" stroke="#d7e0ea" stroke-width="3.00" stroke-linecap="round" stroke-linejoin="round" />
<line x1="1128.0" y1="478.0" x2="1380.0" y2="478.0" fill="none" stroke="#d99722" stroke-width="3.00" stroke-linecap="round" stroke-linejoin="round" opacity="0.550" />
<polyline points="1128.0,628.0 1131.2,626.1 1134.3,621.6 1137.5,614.7 1140.7,605.9 1143.8,595.5 1147.0,583.8 1150.2,571.3 1153.3,558.2 1156.5,544.9 1159.6,531.6 1162.8,518.6 1166.0,506.2 1169.1,494.5 1172.3,483.6 1175.5,473.7 1178.6,464.9 1181.8,457.2 1185.0,450.7 1188.1,445.4 1191.3,441.3 1194.5,438.3 1197.6,436.3 1200.8,435.4 1203.9,435.4 1207.1,436.2 1210.3,437.8 1213.4,439.9 1216.6,442.6 1219.8,445.7 1222.9,449.2 1226.1,452.8 1229.3,456.5 1232.4,460.3 1235.6,464.1 1238.8,467.7 1241.9,471.2 1245.1,474.5 1248.3,477.5 1251.4,480.2 1254.6,482.6 1257.7,484.6 1260.9,486.3 1264.1,487.7 1267.2,488.8 1270.4,489.5 1273.6,490.0 1276.7,490.1 1279.9,490.1 1283.1,489.8 1286.2,489.2 1289.4,488.6 1292.6,487.8 1295.7,486.8 1298.9,485.8 1302.1,484.8 1305.2,483.7 1308.4,482.6 1311.5,481.6 1314.7,480.6 1317.9,479.6 1321.0,478.7 1324.2,477.9 1327.4,477.1 1330.5,476.5 1333.7,475.9 1336.9,475.5 1340.0,475.1 1343.2,474.8 1346.4,474.7 1349.5,474.6 1352.7,474.5 1355.8,474.6 1359.0,474.7 1362.2,474.9 1365.3,475.1 1368.5,475.3 1371.7,475.6 1374.8,475.9 1378.0,476.2" fill="none" stroke="#2d6cdf" stroke-width="5.00" stroke-linecap="round" stroke-linejoin="round" />
<text x="1364.0" y="468.0" font-family="Arial, Helvetica, sans-serif" font-size="15" font-weight="700" text-anchor="end" fill="#d99722" opacity="1.000">target</text>
<text x="1256.0" y="670.0" font-family="Arial, Helvetica, sans-serif" font-size="16" font-weight="700" text-anchor="middle" fill="#697586" opacity="1.000">time</text>
<text x="1108.0" y="410.0" font-family="Arial, Helvetica, sans-serif" font-size="16" font-weight="700" text-anchor="middle" fill="#697586" opacity="1.000">x</text>
</svg>
