<svg xmlns="http://www.w3.org/2000/svg" width="1600" height="900" viewBox="0 0 1600 900" data-rml-style="technical-svg-v1">
  <title>Robotic Manipulation Learning Concept Illustration</title>
  <desc>07 Segmentation to Grasp. A mask selects the target points before downstream grasp proposals are ranked.</desc>
  <metadata>
    Canonical Colab concept asset. Generated by tools/generate_colab_svg_illustrations.py.
    Visual system: cool engineering paper, restrained robotics palette, shared line widths,
    large readable primitives, no photo textures, no random image-generation artifacts.
    Use the SVG as the source of truth; PNG exports are for notebook and static site display.
  </metadata>
  <defs>
    <filter id="soft-shadow" x="-10%" y="-10%" width="120%" height="120%">
      <feDropShadow dx="0" dy="10" stdDeviation="12" flood-color="#182232" flood-opacity="0.12"/>
    </filter>
  </defs>
  <rect x="0.0" y="0.0" width="1600.0" height="900.0" rx="0.0" fill="#f4f7fb" stroke="none" />
<line x1="80.0" y1="0.0" x2="80.0" y2="900.0" fill="none" stroke="#e8eef5" stroke-width="1.00" stroke-linecap="round" stroke-linejoin="round" />
<line x1="160.0" y1="0.0" x2="160.0" y2="900.0" fill="none" stroke="#e8eef5" stroke-width="1.00" stroke-linecap="round" stroke-linejoin="round" />
<line x1="240.0" y1="0.0" x2="240.0" y2="900.0" fill="none" stroke="#e8eef5" stroke-width="1.00" stroke-linecap="round" stroke-linejoin="round" />
<line x1="320.0" y1="0.0" x2="320.0" y2="900.0" fill="none" stroke="#e8eef5" stroke-width="1.00" stroke-linecap="round" stroke-linejoin="round" />
<line x1="400.0" y1="0.0" x2="400.0" y2="900.0" fill="none" stroke="#e8eef5" stroke-width="1.00" stroke-linecap="round" stroke-linejoin="round" />
<line x1="480.0" y1="0.0" x2="480.0" y2="900.0" fill="none" stroke="#e8eef5" stroke-width="1.00" stroke-linecap="round" stroke-linejoin="round" />
<line x1="560.0" y1="0.0" x2="560.0" y2="900.0" fill="none" stroke="#e8eef5" stroke-width="1.00" stroke-linecap="round" stroke-linejoin="round" />
<line x1="640.0" y1="0.0" x2="640.0" y2="900.0" fill="none" stroke="#e8eef5" stroke-width="1.00" stroke-linecap="round" stroke-linejoin="round" />
<line x1="720.0" y1="0.0" x2="720.0" y2="900.0" fill="none" stroke="#e8eef5" stroke-width="1.00" stroke-linecap="round" stroke-linejoin="round" />
<line x1="800.0" y1="0.0" x2="800.0" y2="900.0" fill="none" stroke="#e8eef5" stroke-width="1.00" stroke-linecap="round" stroke-linejoin="round" />
<line x1="880.0" y1="0.0" x2="880.0" y2="900.0" fill="none" stroke="#e8eef5" stroke-width="1.00" stroke-linecap="round" stroke-linejoin="round" />
<line x1="960.0" y1="0.0" x2="960.0" y2="900.0" fill="none" stroke="#e8eef5" stroke-width="1.00" stroke-linecap="round" stroke-linejoin="round" />
<line x1="1040.0" y1="0.0" x2="1040.0" y2="900.0" fill="none" stroke="#e8eef5" stroke-width="1.00" stroke-linecap="round" stroke-linejoin="round" />
<line x1="1120.0" y1="0.0" x2="1120.0" y2="900.0" fill="none" stroke="#e8eef5" stroke-width="1.00" stroke-linecap="round" stroke-linejoin="round" />
<line x1="1200.0" y1="0.0" x2="1200.0" y2="900.0" fill="none" stroke="#e8eef5" stroke-width="1.00" stroke-linecap="round" stroke-linejoin="round" />
<line x1="1280.0" y1="0.0" x2="1280.0" y2="900.0" fill="none" stroke="#e8eef5" stroke-width="1.00" stroke-linecap="round" stroke-linejoin="round" />
<line x1="1360.0" y1="0.0" x2="1360.0" y2="900.0" fill="none" stroke="#e8eef5" stroke-width="1.00" stroke-linecap="round" stroke-linejoin="round" />
<line x1="1440.0" y1="0.0" x2="1440.0" y2="900.0" fill="none" stroke="#e8eef5" stroke-width="1.00" stroke-linecap="round" stroke-linejoin="round" />
<line x1="1520.0" y1="0.0" x2="1520.0" y2="900.0" fill="none" stroke="#e8eef5" stroke-width="1.00" stroke-linecap="round" stroke-linejoin="round" />
<line x1="0.0" y1="80.0" x2="1600.0" y2="80.0" fill="none" stroke="#e8eef5" stroke-width="1.00" stroke-linecap="round" stroke-linejoin="round" />
<line x1="0.0" y1="160.0" x2="1600.0" y2="160.0" fill="none" stroke="#e8eef5" stroke-width="1.00" stroke-linecap="round" stroke-linejoin="round" />
<line x1="0.0" y1="240.0" x2="1600.0" y2="240.0" fill="none" stroke="#e8eef5" stroke-width="1.00" stroke-linecap="round" stroke-linejoin="round" />
<line x1="0.0" y1="320.0" x2="1600.0" y2="320.0" fill="none" stroke="#e8eef5" stroke-width="1.00" stroke-linecap="round" stroke-linejoin="round" />
<line x1="0.0" y1="400.0" x2="1600.0" y2="400.0" fill="none" stroke="#e8eef5" stroke-width="1.00" stroke-linecap="round" stroke-linejoin="round" />
<line x1="0.0" y1="480.0" x2="1600.0" y2="480.0" fill="none" stroke="#e8eef5" stroke-width="1.00" stroke-linecap="round" stroke-linejoin="round" />
<line x1="0.0" y1="560.0" x2="1600.0" y2="560.0" fill="none" stroke="#e8eef5" stroke-width="1.00" stroke-linecap="round" stroke-linejoin="round" />
<line x1="0.0" y1="640.0" x2="1600.0" y2="640.0" fill="none" stroke="#e8eef5" stroke-width="1.00" stroke-linecap="round" stroke-linejoin="round" />
<line x1="0.0" y1="720.0" x2="1600.0" y2="720.0" fill="none" stroke="#e8eef5" stroke-width="1.00" stroke-linecap="round" stroke-linejoin="round" />
<line x1="0.0" y1="800.0" x2="1600.0" y2="800.0" fill="none" stroke="#e8eef5" stroke-width="1.00" stroke-linecap="round" stroke-linejoin="round" />
<line x1="0.0" y1="880.0" x2="1600.0" y2="880.0" fill="none" stroke="#e8eef5" stroke-width="1.00" stroke-linecap="round" stroke-linejoin="round" />
<line x1="160.0" y1="184.0" x2="160.0" y2="820.0" fill="none" stroke="#d7e0ea" stroke-width="1.20" stroke-linecap="round" stroke-linejoin="round" opacity="0.750" />
<line x1="480.0" y1="184.0" x2="480.0" y2="820.0" fill="none" stroke="#d7e0ea" stroke-width="1.20" stroke-linecap="round" stroke-linejoin="round" opacity="0.750" />
<line x1="800.0" y1="184.0" x2="800.0" y2="820.0" fill="none" stroke="#d7e0ea" stroke-width="1.20" stroke-linecap="round" stroke-linejoin="round" opacity="0.750" />
<line x1="1120.0" y1="184.0" x2="1120.0" y2="820.0" fill="none" stroke="#d7e0ea" stroke-width="1.20" stroke-linecap="round" stroke-linejoin="round" opacity="0.750" />
<line x1="1440.0" y1="184.0" x2="1440.0" y2="820.0" fill="none" stroke="#d7e0ea" stroke-width="1.20" stroke-linecap="round" stroke-linejoin="round" opacity="0.750" />
<rect x="52.0" y="52.0" width="1496.0" height="796.0" rx="6.0" fill="#ffffff" stroke="#d7e0ea" stroke-width="2.00" stroke-linecap="round" stroke-linejoin="round" />
<rect x="52.0" y="52.0" width="1496.0" height="106.0" rx="6.0" fill="#ffffff" stroke="#d7e0ea" stroke-width="1.00" stroke-linecap="round" stroke-linejoin="round" />
<rect x="86.0" y="78.0" width="80.0" height="52.0" rx="4.0" fill="#182232" stroke="none" />
<text x="126.0" y="115.0" font-family="Arial, Helvetica, sans-serif" font-size="28" font-weight="700" text-anchor="middle" fill="#ffffff" opacity="1.000">07</text>
<text x="190.0" y="104.0" font-family="Arial, Helvetica, sans-serif" font-size="40" font-weight="700" text-anchor="start" fill="#182232" opacity="1.000">Segmentation to Grasp</text>
<text x="190.0" y="137.0" font-family="Arial, Helvetica, sans-serif" font-size="22" font-weight="500" text-anchor="start" fill="#697586" opacity="1.000">A mask selects the target points before downstream grasp proposals are ranked.</text>
<text x="1355.0" y="103.0" font-family="Arial, Helvetica, sans-serif" font-size="18" font-weight="700" text-anchor="end" fill="#697586" opacity="1.000">RML COLAB</text>
<text x="1355.0" y="131.0" font-family="Arial, Helvetica, sans-serif" font-size="16" font-weight="500" text-anchor="end" fill="#9aa8bb" opacity="1.000">concept map</text>
<rect x="1385.0" y="82.0" width="96.0" height="46.0" rx="4.0" fill="#2d6cdf" stroke="none" />
<text x="1433.0" y="113.0" font-family="Arial, Helvetica, sans-serif" font-size="18" font-weight="700" text-anchor="middle" fill="#ffffff" opacity="1.000">RUN</text>
<circle cx="94.0" cy="812.0" r="8.0" fill="#2d6cdf" stroke="none" />
<text x="110.0" y="819.0" font-family="Arial, Helvetica, sans-serif" font-size="15" font-weight="700" text-anchor="start" fill="#697586" opacity="1.000">state</text>
<circle cx="212.0" cy="812.0" r="8.0" fill="#d99722" stroke="none" />
<text x="228.0" y="819.0" font-family="Arial, Helvetica, sans-serif" font-size="15" font-weight="700" text-anchor="start" fill="#697586" opacity="1.000">target</text>
<circle cx="330.0" cy="812.0" r="8.0" fill="#c94b38" stroke="none" />
<text x="346.0" y="819.0" font-family="Arial, Helvetica, sans-serif" font-size="15" font-weight="700" text-anchor="start" fill="#697586" opacity="1.000">error</text>
<circle cx="448.0" cy="812.0" r="8.0" fill="#128b82" stroke="none" />
<text x="464.0" y="819.0" font-family="Arial, Helvetica, sans-serif" font-size="15" font-weight="700" text-anchor="start" fill="#697586" opacity="1.000">policy</text>
<rect x="102.0" y="238.0" width="430.0" height="500.0" rx="6.0" fill="#101722" stroke="#d7e0ea" stroke-width="2.00" stroke-linecap="round" stroke-linejoin="round" />
<rect x="132.0" y="280.0" width="370.0" height="258.0" rx="4.0" fill="#253348" stroke="none" />
<polygon points="190.0,430.0 232.0,364.0 310.0,382.0 344.0,456.0 280.0,500.0" fill="#128b82" stroke="none" opacity="0.750" />
<circle cx="405.0" cy="416.0" r="54.0" fill="#d99722" stroke="none" opacity="0.820" />
<rect x="146.0" y="564.0" width="342.0" height="96.0" rx="4.0" fill="#1d2736" stroke="#9aa8bb" stroke-width="1.00" stroke-linecap="round" stroke-linejoin="round" />
<circle cx="276.3" cy="442.6" r="4.2" fill="#128b82" stroke="none" opacity="0.950" />
<circle cx="249.6" cy="444.2" r="4.2" fill="#128b82" stroke="none" opacity="0.950" />
<circle cx="276.2" cy="428.2" r="4.2" fill="#128b82" stroke="none" opacity="0.950" />
<circle cx="272.8" cy="455.0" r="4.2" fill="#128b82" stroke="none" opacity="0.950" />
<circle cx="240.4" cy="428.4" r="4.2" fill="#128b82" stroke="none" opacity="0.950" />
<circle cx="300.4" cy="436.2" r="4.2" fill="#128b82" stroke="none" opacity="0.950" />
<circle cx="248.3" cy="456.2" r="4.2" fill="#128b82" stroke="none" opacity="0.950" />
<circle cx="264.2" cy="415.9" r="4.2" fill="#128b82" stroke="none" opacity="0.950" />
<circle cx="299.7" cy="460.5" r="4.2" fill="#128b82" stroke="none" opacity="0.950" />
<circle cx="225.1" cy="439.8" r="4.2" fill="#128b82" stroke="none" opacity="0.950" />
<circle cx="295.4" cy="422.7" r="4.2" fill="#128b82" stroke="none" opacity="0.950" />
<circle cx="262.4" cy="471.9" r="4.2" fill="#128b82" stroke="none" opacity="0.950" />
<circle cx="234.7" cy="411.1" r="4.2" fill="#128b82" stroke="none" opacity="0.950" />
<circle cx="312.9" cy="445.7" r="4.2" fill="#128b82" stroke="none" opacity="0.950" />
<circle cx="227.8" cy="456.5" r="4.2" fill="#128b82" stroke="none" opacity="0.950" />
<circle cx="282.6" cy="402.2" r="4.2" fill="#128b82" stroke="none" opacity="0.950" />
<circle cx="294.0" cy="475.8" r="4.2" fill="#128b82" stroke="none" opacity="0.950" />
<circle cx="219.8" cy="428.1" r="4.2" fill="#128b82" stroke="none" opacity="0.950" />
<circle cx="318.3" cy="426.1" r="4.2" fill="#128b82" stroke="none" opacity="0.950" />
<circle cx="237.9" cy="481.0" r="4.2" fill="#128b82" stroke="none" opacity="0.950" />
<circle cx="248.8" cy="399.6" r="4.2" fill="#128b82" stroke="none" opacity="0.950" />
<circle cx="314.1" cy="458.8" r="4.2" fill="#128b82" stroke="none" opacity="0.950" />
<circle cx="203.2" cy="449.1" r="4.2" fill="#128b82" stroke="none" opacity="0.950" />
<circle cx="310.1" cy="399.4" r="4.2" fill="#128b82" stroke="none" opacity="0.950" />
<circle cx="274.7" cy="482.9" r="4.2" fill="#128b82" stroke="none" opacity="0.950" />
<circle cx="221.0" cy="413.4" r="4.2" fill="#128b82" stroke="none" opacity="0.950" />
<circle cx="342.0" cy="438.3" r="4.2" fill="#128b82" stroke="none" opacity="0.950" />
<circle cx="211.3" cy="476.7" r="4.2" fill="#128b82" stroke="none" opacity="0.950" />
<circle cx="270.6" cy="396.1" r="4.2" fill="#128b82" stroke="none" opacity="0.950" />
<circle cx="310.5" cy="475.7" r="4.2" fill="#128b82" stroke="none" opacity="0.950" />
<circle cx="184.1" cy="432.0" r="4.2" fill="#128b82" stroke="none" opacity="0.950" />
<circle cx="332.3" cy="409.9" r="4.2" fill="#128b82" stroke="none" opacity="0.950" />
<circle cx="251.6" cy="484.3" r="4.2" fill="#128b82" stroke="none" opacity="0.950" />
<circle cx="228.8" cy="394.2" r="4.2" fill="#128b82" stroke="none" opacity="0.950" />
<circle cx="352.5" cy="458.9" r="4.2" fill="#128b82" stroke="none" opacity="0.950" />
<circle cx="195.3" cy="461.8" r="4.2" fill="#128b82" stroke="none" opacity="0.950" />
<circle cx="295.3" cy="395.5" r="4.2" fill="#128b82" stroke="none" opacity="0.950" />
<circle cx="296.1" cy="495.9" r="4.2" fill="#128b82" stroke="none" opacity="0.950" />
<circle cx="184.9" cy="410.3" r="4.2" fill="#128b82" stroke="none" opacity="0.950" />
<circle cx="342.5" cy="427.1" r="4.2" fill="#128b82" stroke="none" opacity="0.950" />
<circle cx="223.7" cy="484.5" r="4.2" fill="#128b82" stroke="none" opacity="0.950" />
<circle cx="251.4" cy="375.6" r="4.2" fill="#128b82" stroke="none" opacity="0.950" />
<circle cx="340.4" cy="479.0" r="4.2" fill="#128b82" stroke="none" opacity="0.950" />
<circle cx="188.8" cy="443.9" r="4.2" fill="#128b82" stroke="none" opacity="0.950" />
<circle cx="327.4" cy="396.7" r="4.2" fill="#128b82" stroke="none" opacity="0.950" />
<circle cx="265.6" cy="509.7" r="4.2" fill="#128b82" stroke="none" opacity="0.950" />
<text x="144.0" y="704.0" font-family="Arial, Helvetica, sans-serif" font-size="19" font-weight="700" text-anchor="start" fill="#ffffff" opacity="1.000">RGB-D view + mask</text>
<line x1="535.0" y1="488.0" x2="655.0" y2="488.0" fill="none" stroke="#2d6cdf" stroke-width="5.00" stroke-linecap="round" stroke-linejoin="round" />
<polygon points="655.0,488.0 639.8,497.6 639.8,478.4" fill="#2d6cdf" stroke="none" />
<rect x="660.0" y="260.0" width="300.0" height="440.0" rx="6.0" fill="#f9fbfe" stroke="#d7e0ea" stroke-width="2.00" stroke-linecap="round" stroke-linejoin="round" />
<circle cx="811.7" cy="495.2" r="5.0" fill="#128b82" stroke="none" opacity="0.820" />
<circle cx="802.7" cy="467.0" r="5.0" fill="#128b82" stroke="none" opacity="0.820" />
<circle cx="828.3" cy="484.7" r="5.0" fill="#128b82" stroke="none" opacity="0.820" />
<circle cx="793.0" cy="501.0" r="5.0" fill="#128b82" stroke="none" opacity="0.820" />
<circle cx="817.7" cy="443.9" r="5.0" fill="#128b82" stroke="none" opacity="0.820" />
<circle cx="825.1" cy="512.5" r="5.0" fill="#128b82" stroke="none" opacity="0.820" />
<circle cx="785.6" cy="471.0" r="5.0" fill="#128b82" stroke="none" opacity="0.820" />
<circle cx="844.3" cy="460.3" r="5.0" fill="#128b82" stroke="none" opacity="0.820" />
<circle cx="798.4" cy="529.5" r="5.0" fill="#128b82" stroke="none" opacity="0.820" />
<circle cx="800.6" cy="440.2" r="5.0" fill="#128b82" stroke="none" opacity="0.820" />
<circle cx="845.3" cy="505.3" r="5.0" fill="#128b82" stroke="none" opacity="0.820" />
<circle cx="768.2" cy="499.1" r="5.0" fill="#128b82" stroke="none" opacity="0.820" />
<circle cx="834.1" cy="432.5" r="5.0" fill="#128b82" stroke="none" opacity="0.820" />
<circle cx="819.1" cy="533.9" r="5.0" fill="#128b82" stroke="none" opacity="0.820" />
<circle cx="774.5" cy="443.1" r="5.0" fill="#128b82" stroke="none" opacity="0.820" />
<circle cx="864.1" cy="474.8" r="5.0" fill="#128b82" stroke="none" opacity="0.820" />
<circle cx="781.9" cy="528.7" r="5.0" fill="#128b82" stroke="none" opacity="0.820" />
<circle cx="811.5" cy="420.1" r="5.0" fill="#128b82" stroke="none" opacity="0.820" />
<circle cx="850.2" cy="538.5" r="5.0" fill="#128b82" stroke="none" opacity="0.820" />
<circle cx="755.6" cy="476.1" r="5.0" fill="#128b82" stroke="none" opacity="0.820" />
<circle cx="849.5" cy="441.0" r="5.0" fill="#128b82" stroke="none" opacity="0.820" />
<circle cx="803.5" cy="553.7" r="5.0" fill="#128b82" stroke="none" opacity="0.820" />
<circle cx="777.3" cy="408.3" r="5.0" fill="#128b82" stroke="none" opacity="0.820" />
<circle cx="868.8" cy="502.2" r="5.0" fill="#128b82" stroke="none" opacity="0.820" />
<circle cx="766.9" cy="515.5" r="5.0" fill="#128b82" stroke="none" opacity="0.820" />
<circle cx="832.2" cy="402.2" r="5.0" fill="#128b82" stroke="none" opacity="0.820" />
<circle cx="839.0" cy="570.0" r="5.0" fill="#128b82" stroke="none" opacity="0.820" />
<circle cx="758.0" cy="448.0" r="5.0" fill="#128b82" stroke="none" opacity="0.820" />
<circle cx="865.4" cy="457.7" r="5.0" fill="#128b82" stroke="none" opacity="0.820" />
<circle cx="777.9" cy="566.1" r="5.0" fill="#128b82" stroke="none" opacity="0.820" />
<circle cx="795.7" cy="384.9" r="5.0" fill="#128b82" stroke="none" opacity="0.820" />
<circle cx="861.4" cy="529.0" r="5.0" fill="#128b82" stroke="none" opacity="0.820" />
<circle cx="749.5" cy="494.3" r="5.0" fill="#128b82" stroke="none" opacity="0.820" />
<circle cx="860.8" cy="399.5" r="5.0" fill="#128b82" stroke="none" opacity="0.820" />
<circle cx="815.9" cy="582.4" r="5.0" fill="#128b82" stroke="none" opacity="0.820" />
<circle cx="768.0" cy="422.0" r="5.0" fill="#128b82" stroke="none" opacity="0.820" />
<circle cx="883.4" cy="485.4" r="5.0" fill="#128b82" stroke="none" opacity="0.820" />
<circle cx="749.6" cy="556.2" r="5.0" fill="#128b82" stroke="none" opacity="0.820" />
<circle cx="820.7" cy="383.3" r="5.0" fill="#128b82" stroke="none" opacity="0.820" />
<circle cx="850.1" cy="556.1" r="5.0" fill="#128b82" stroke="none" opacity="0.820" />
<circle cx="733.6" cy="458.9" r="5.0" fill="#128b82" stroke="none" opacity="0.820" />
<circle cx="884.9" cy="422.3" r="5.0" fill="#128b82" stroke="none" opacity="0.820" />
<circle cx="791.4" cy="575.8" r="5.0" fill="#128b82" stroke="none" opacity="0.820" />
<circle cx="781.1" cy="392.0" r="5.0" fill="#128b82" stroke="none" opacity="0.820" />
<circle cx="893.5" cy="527.8" r="5.0" fill="#128b82" stroke="none" opacity="0.820" />
<circle cx="732.8" cy="523.1" r="5.0" fill="#128b82" stroke="none" opacity="0.820" />
<circle cx="844.2" cy="394.2" r="5.0" fill="#128b82" stroke="none" opacity="0.820" />
<circle cx="833.3" cy="589.0" r="5.0" fill="#128b82" stroke="none" opacity="0.820" />
<circle cx="732.8" cy="413.1" r="5.0" fill="#128b82" stroke="none" opacity="0.820" />
<circle cx="893.3" cy="461.2" r="5.0" fill="#128b82" stroke="none" opacity="0.820" />
<circle cx="767.6" cy="563.7" r="5.0" fill="#128b82" stroke="none" opacity="0.820" />
<circle cx="803.6" cy="359.1" r="5.0" fill="#128b82" stroke="none" opacity="0.820" />
<circle cx="883.3" cy="571.4" r="5.0" fill="#128b82" stroke="none" opacity="0.820" />
<circle cx="731.5" cy="482.8" r="5.0" fill="#128b82" stroke="none" opacity="0.820" />
<circle cx="870.0" cy="407.2" r="5.0" fill="#128b82" stroke="none" opacity="0.820" />
<circle cx="804.2" cy="616.5" r="5.0" fill="#128b82" stroke="none" opacity="0.820" />
<circle cx="753.2" cy="377.1" r="5.0" fill="#128b82" stroke="none" opacity="0.820" />
<circle cx="890.4" cy="500.5" r="5.0" fill="#128b82" stroke="none" opacity="0.820" />
<circle cx="738.9" cy="547.6" r="5.0" fill="#128b82" stroke="none" opacity="0.820" />
<circle cx="838.1" cy="343.2" r="5.0" fill="#128b82" stroke="none" opacity="0.820" />
<circle cx="855.6" cy="596.5" r="5.0" fill="#128b82" stroke="none" opacity="0.820" />
<circle cx="735.7" cy="444.1" r="5.0" fill="#128b82" stroke="none" opacity="0.820" />
<circle cx="900.6" cy="430.1" r="5.0" fill="#128b82" stroke="none" opacity="0.820" />
<circle cx="767.6" cy="616.3" r="5.0" fill="#128b82" stroke="none" opacity="0.820" />
<circle cx="884.1" cy="394.7" r="4.0" fill="#c94b38" stroke="none" opacity="0.380" />
<circle cx="857.5" cy="390.5" r="4.0" fill="#c94b38" stroke="none" opacity="0.380" />
<circle cx="889.9" cy="380.4" r="4.0" fill="#c94b38" stroke="none" opacity="0.380" />
<circle cx="874.9" cy="406.9" r="4.0" fill="#c94b38" stroke="none" opacity="0.380" />
<circle cx="854.8" cy="372.4" r="4.0" fill="#c94b38" stroke="none" opacity="0.380" />
<circle cx="909.2" cy="393.1" r="4.0" fill="#c94b38" stroke="none" opacity="0.380" />
<circle cx="850.7" cy="402.2" r="4.0" fill="#c94b38" stroke="none" opacity="0.380" />
<circle cx="884.4" cy="364.2" r="4.0" fill="#c94b38" stroke="none" opacity="0.380" />
<circle cx="898.7" cy="417.5" r="4.0" fill="#c94b38" stroke="none" opacity="0.380" />
<circle cx="836.7" cy="381.3" r="4.0" fill="#c94b38" stroke="none" opacity="0.380" />
<circle cx="912.0" cy="378.5" r="4.0" fill="#c94b38" stroke="none" opacity="0.380" />
<circle cx="856.6" cy="422.1" r="4.0" fill="#c94b38" stroke="none" opacity="0.380" />
<circle cx="857.7" cy="354.8" r="4.0" fill="#c94b38" stroke="none" opacity="0.380" />
<circle cx="917.0" cy="404.9" r="4.0" fill="#c94b38" stroke="none" opacity="0.380" />
<line x1="756.0" y1="620.0" x2="789.6" y2="620.0" fill="none" stroke="#c94b38" stroke-width="4.00" stroke-linecap="round" stroke-linejoin="round" />
<polygon points="789.6,620.0 779.5,626.4 779.5,613.6" fill="#c94b38" stroke="none" />
<line x1="756.0" y1="620.0" x2="756.0" y2="586.4" fill="none" stroke="#128b82" stroke-width="4.00" stroke-linecap="round" stroke-linejoin="round" />
<polygon points="756.0,586.4 762.4,596.5 749.6,596.5" fill="#128b82" stroke="none" />
<circle cx="756.0" cy="620.0" r="4.1" fill="#182232" stroke="none" />
<text x="748.0" y="654.0" font-family="Arial, Helvetica, sans-serif" font-size="16" font-weight="700" text-anchor="middle" fill="#697586" opacity="1.000">object</text>
<text x="810.0" y="314.0" font-family="Arial, Helvetica, sans-serif" font-size="20" font-weight="700" text-anchor="middle" fill="#128b82" opacity="1.000">target cloud</text>
<line x1="963.0" y1="488.0" x2="1075.0" y2="488.0" fill="none" stroke="#2d6cdf" stroke-width="5.00" stroke-linecap="round" stroke-linejoin="round" />
<polygon points="1075.0,488.0 1059.8,497.6 1059.8,478.4" fill="#2d6cdf" stroke="none" />
<rect x="1082.0" y="260.0" width="350.0" height="440.0" rx="6.0" fill="#ffffff" stroke="#d7e0ea" stroke-width="2.00" stroke-linecap="round" stroke-linejoin="round" />
<polygon points="1170.0,500.0 1210.0,420.0 1290.0,414.0 1340.0,484.0 1300.0,565.0 1210.0,575.0" fill="#e8edf5" stroke="#9aa8bb" stroke-width="3.00" stroke-linecap="round" stroke-linejoin="round" />
<line x1="1187.6" y1="481.5" x2="1311.5" y2="453.8" fill="none" stroke="#128b82" stroke-width="8.32" stroke-linecap="round" stroke-linejoin="round" />
<line x1="1198.5" y1="530.2" x2="1322.4" y2="502.5" fill="none" stroke="#128b82" stroke-width="8.32" stroke-linecap="round" stroke-linejoin="round" />
<line x1="1187.6" y1="481.5" x2="1198.5" y2="530.2" fill="none" stroke="#128b82" stroke-width="6.24" stroke-linecap="round" stroke-linejoin="round" />
<line x1="1140.3" y1="517.6" x2="1193.1" y2="505.8" fill="none" stroke="#128b82" stroke-width="7.28" stroke-linecap="round" stroke-linejoin="round" />
<circle cx="1202.0" cy="480.0" r="12.0" fill="#128b82" stroke="#182232" stroke-width="2.00" stroke-linecap="round" stroke-linejoin="round" />
<circle cx="1300.0" cy="458.0" r="12.0" fill="#128b82" stroke="#182232" stroke-width="2.00" stroke-linecap="round" stroke-linejoin="round" />
<text x="1256.0" y="646.0" font-family="Arial, Helvetica, sans-serif" font-size="20" font-weight="700" text-anchor="middle" fill="#128b82" opacity="1.000">ranked grasp proposal</text>
</svg>
