<svg xmlns="http://www.w3.org/2000/svg" width="1600" height="900" viewBox="0 0 1600 900" data-rml-style="technical-svg-v1">
  <title>Robotic Manipulation Learning Concept Illustration</title>
  <desc>08 RL Grasping Gridworld. State, action, reward, and policy can be studied in a compact manipulation world.</desc>
  <metadata>
    Canonical Colab concept asset. Generated by tools/generate_colab_svg_illustrations.py.
    Visual system: cool engineering paper, restrained robotics palette, shared line widths,
    large readable primitives, no photo textures, no random image-generation artifacts.
    Use the SVG as the source of truth; PNG exports are for notebook and static site display.
  </metadata>
  <defs>
    <filter id="soft-shadow" x="-10%" y="-10%" width="120%" height="120%">
      <feDropShadow dx="0" dy="10" stdDeviation="12" flood-color="#182232" flood-opacity="0.12"/>
    </filter>
  </defs>
  <rect x="0.0" y="0.0" width="1600.0" height="900.0" rx="0.0" fill="#f4f7fb" stroke="none" />
<line x1="80.0" y1="0.0" x2="80.0" y2="900.0" fill="none" stroke="#e8eef5" stroke-width="1.00" stroke-linecap="round" stroke-linejoin="round" />
<line x1="160.0" y1="0.0" x2="160.0" y2="900.0" fill="none" stroke="#e8eef5" stroke-width="1.00" stroke-linecap="round" stroke-linejoin="round" />
<line x1="240.0" y1="0.0" x2="240.0" y2="900.0" fill="none" stroke="#e8eef5" stroke-width="1.00" stroke-linecap="round" stroke-linejoin="round" />
<line x1="320.0" y1="0.0" x2="320.0" y2="900.0" fill="none" stroke="#e8eef5" stroke-width="1.00" stroke-linecap="round" stroke-linejoin="round" />
<line x1="400.0" y1="0.0" x2="400.0" y2="900.0" fill="none" stroke="#e8eef5" stroke-width="1.00" stroke-linecap="round" stroke-linejoin="round" />
<line x1="480.0" y1="0.0" x2="480.0" y2="900.0" fill="none" stroke="#e8eef5" stroke-width="1.00" stroke-linecap="round" stroke-linejoin="round" />
<line x1="560.0" y1="0.0" x2="560.0" y2="900.0" fill="none" stroke="#e8eef5" stroke-width="1.00" stroke-linecap="round" stroke-linejoin="round" />
<line x1="640.0" y1="0.0" x2="640.0" y2="900.0" fill="none" stroke="#e8eef5" stroke-width="1.00" stroke-linecap="round" stroke-linejoin="round" />
<line x1="720.0" y1="0.0" x2="720.0" y2="900.0" fill="none" stroke="#e8eef5" stroke-width="1.00" stroke-linecap="round" stroke-linejoin="round" />
<line x1="800.0" y1="0.0" x2="800.0" y2="900.0" fill="none" stroke="#e8eef5" stroke-width="1.00" stroke-linecap="round" stroke-linejoin="round" />
<line x1="880.0" y1="0.0" x2="880.0" y2="900.0" fill="none" stroke="#e8eef5" stroke-width="1.00" stroke-linecap="round" stroke-linejoin="round" />
<line x1="960.0" y1="0.0" x2="960.0" y2="900.0" fill="none" stroke="#e8eef5" stroke-width="1.00" stroke-linecap="round" stroke-linejoin="round" />
<line x1="1040.0" y1="0.0" x2="1040.0" y2="900.0" fill="none" stroke="#e8eef5" stroke-width="1.00" stroke-linecap="round" stroke-linejoin="round" />
<line x1="1120.0" y1="0.0" x2="1120.0" y2="900.0" fill="none" stroke="#e8eef5" stroke-width="1.00" stroke-linecap="round" stroke-linejoin="round" />
<line x1="1200.0" y1="0.0" x2="1200.0" y2="900.0" fill="none" stroke="#e8eef5" stroke-width="1.00" stroke-linecap="round" stroke-linejoin="round" />
<line x1="1280.0" y1="0.0" x2="1280.0" y2="900.0" fill="none" stroke="#e8eef5" stroke-width="1.00" stroke-linecap="round" stroke-linejoin="round" />
<line x1="1360.0" y1="0.0" x2="1360.0" y2="900.0" fill="none" stroke="#e8eef5" stroke-width="1.00" stroke-linecap="round" stroke-linejoin="round" />
<line x1="1440.0" y1="0.0" x2="1440.0" y2="900.0" fill="none" stroke="#e8eef5" stroke-width="1.00" stroke-linecap="round" stroke-linejoin="round" />
<line x1="1520.0" y1="0.0" x2="1520.0" y2="900.0" fill="none" stroke="#e8eef5" stroke-width="1.00" stroke-linecap="round" stroke-linejoin="round" />
<line x1="0.0" y1="80.0" x2="1600.0" y2="80.0" fill="none" stroke="#e8eef5" stroke-width="1.00" stroke-linecap="round" stroke-linejoin="round" />
<line x1="0.0" y1="160.0" x2="1600.0" y2="160.0" fill="none" stroke="#e8eef5" stroke-width="1.00" stroke-linecap="round" stroke-linejoin="round" />
<line x1="0.0" y1="240.0" x2="1600.0" y2="240.0" fill="none" stroke="#e8eef5" stroke-width="1.00" stroke-linecap="round" stroke-linejoin="round" />
<line x1="0.0" y1="320.0" x2="1600.0" y2="320.0" fill="none" stroke="#e8eef5" stroke-width="1.00" stroke-linecap="round" stroke-linejoin="round" />
<line x1="0.0" y1="400.0" x2="1600.0" y2="400.0" fill="none" stroke="#e8eef5" stroke-width="1.00" stroke-linecap="round" stroke-linejoin="round" />
<line x1="0.0" y1="480.0" x2="1600.0" y2="480.0" fill="none" stroke="#e8eef5" stroke-width="1.00" stroke-linecap="round" stroke-linejoin="round" />
<line x1="0.0" y1="560.0" x2="1600.0" y2="560.0" fill="none" stroke="#e8eef5" stroke-width="1.00" stroke-linecap="round" stroke-linejoin="round" />
<line x1="0.0" y1="640.0" x2="1600.0" y2="640.0" fill="none" stroke="#e8eef5" stroke-width="1.00" stroke-linecap="round" stroke-linejoin="round" />
<line x1="0.0" y1="720.0" x2="1600.0" y2="720.0" fill="none" stroke="#e8eef5" stroke-width="1.00" stroke-linecap="round" stroke-linejoin="round" />
<line x1="0.0" y1="800.0" x2="1600.0" y2="800.0" fill="none" stroke="#e8eef5" stroke-width="1.00" stroke-linecap="round" stroke-linejoin="round" />
<line x1="0.0" y1="880.0" x2="1600.0" y2="880.0" fill="none" stroke="#e8eef5" stroke-width="1.00" stroke-linecap="round" stroke-linejoin="round" />
<line x1="160.0" y1="184.0" x2="160.0" y2="820.0" fill="none" stroke="#d7e0ea" stroke-width="1.20" stroke-linecap="round" stroke-linejoin="round" opacity="0.750" />
<line x1="480.0" y1="184.0" x2="480.0" y2="820.0" fill="none" stroke="#d7e0ea" stroke-width="1.20" stroke-linecap="round" stroke-linejoin="round" opacity="0.750" />
<line x1="800.0" y1="184.0" x2="800.0" y2="820.0" fill="none" stroke="#d7e0ea" stroke-width="1.20" stroke-linecap="round" stroke-linejoin="round" opacity="0.750" />
<line x1="1120.0" y1="184.0" x2="1120.0" y2="820.0" fill="none" stroke="#d7e0ea" stroke-width="1.20" stroke-linecap="round" stroke-linejoin="round" opacity="0.750" />
<line x1="1440.0" y1="184.0" x2="1440.0" y2="820.0" fill="none" stroke="#d7e0ea" stroke-width="1.20" stroke-linecap="round" stroke-linejoin="round" opacity="0.750" />
<rect x="52.0" y="52.0" width="1496.0" height="796.0" rx="6.0" fill="#ffffff" stroke="#d7e0ea" stroke-width="2.00" stroke-linecap="round" stroke-linejoin="round" />
<rect x="52.0" y="52.0" width="1496.0" height="106.0" rx="6.0" fill="#ffffff" stroke="#d7e0ea" stroke-width="1.00" stroke-linecap="round" stroke-linejoin="round" />
<rect x="86.0" y="78.0" width="80.0" height="52.0" rx="4.0" fill="#182232" stroke="none" />
<text x="126.0" y="115.0" font-family="Arial, Helvetica, sans-serif" font-size="28" font-weight="700" text-anchor="middle" fill="#ffffff" opacity="1.000">08</text>
<text x="190.0" y="104.0" font-family="Arial, Helvetica, sans-serif" font-size="40" font-weight="700" text-anchor="start" fill="#182232" opacity="1.000">RL Grasping Gridworld</text>
<text x="190.0" y="137.0" font-family="Arial, Helvetica, sans-serif" font-size="22" font-weight="500" text-anchor="start" fill="#697586" opacity="1.000">State, action, reward, and policy can be studied in a compact manipulation world.</text>
<text x="1355.0" y="103.0" font-family="Arial, Helvetica, sans-serif" font-size="18" font-weight="700" text-anchor="end" fill="#697586" opacity="1.000">RML COLAB</text>
<text x="1355.0" y="131.0" font-family="Arial, Helvetica, sans-serif" font-size="16" font-weight="500" text-anchor="end" fill="#9aa8bb" opacity="1.000">concept map</text>
<rect x="1385.0" y="82.0" width="96.0" height="46.0" rx="4.0" fill="#2d6cdf" stroke="none" />
<text x="1433.0" y="113.0" font-family="Arial, Helvetica, sans-serif" font-size="18" font-weight="700" text-anchor="middle" fill="#ffffff" opacity="1.000">RUN</text>
<circle cx="94.0" cy="812.0" r="8.0" fill="#2d6cdf" stroke="none" />
<text x="110.0" y="819.0" font-family="Arial, Helvetica, sans-serif" font-size="15" font-weight="700" text-anchor="start" fill="#697586" opacity="1.000">state</text>
<circle cx="212.0" cy="812.0" r="8.0" fill="#d99722" stroke="none" />
<text x="228.0" y="819.0" font-family="Arial, Helvetica, sans-serif" font-size="15" font-weight="700" text-anchor="start" fill="#697586" opacity="1.000">target</text>
<circle cx="330.0" cy="812.0" r="8.0" fill="#c94b38" stroke="none" />
<text x="346.0" y="819.0" font-family="Arial, Helvetica, sans-serif" font-size="15" font-weight="700" text-anchor="start" fill="#697586" opacity="1.000">error</text>
<circle cx="448.0" cy="812.0" r="8.0" fill="#128b82" stroke="none" />
<text x="464.0" y="819.0" font-family="Arial, Helvetica, sans-serif" font-size="15" font-weight="700" text-anchor="start" fill="#697586" opacity="1.000">policy</text>
<rect x="124.0" y="226.0" width="620.0" height="520.0" rx="6.0" fill="#f9fbfe" stroke="#d7e0ea" stroke-width="2.00" stroke-linecap="round" stroke-linejoin="round" />
<rect x="190.0" y="288.0" width="100.0" height="100.0" rx="0.0" fill="#2d6cdf" stroke="#d7e0ea" stroke-width="2.00" stroke-linecap="round" stroke-linejoin="round" opacity="0.174" />
<rect x="290.0" y="288.0" width="100.0" height="100.0" rx="0.0" fill="#2d6cdf" stroke="#d7e0ea" stroke-width="2.00" stroke-linecap="round" stroke-linejoin="round" opacity="0.196" />
<rect x="390.0" y="288.0" width="100.0" height="100.0" rx="0.0" fill="#2d6cdf" stroke="#d7e0ea" stroke-width="2.00" stroke-linecap="round" stroke-linejoin="round" opacity="0.224" />
<rect x="490.0" y="288.0" width="100.0" height="100.0" rx="0.0" fill="#2d6cdf" stroke="#d7e0ea" stroke-width="2.00" stroke-linecap="round" stroke-linejoin="round" opacity="0.266" />
<rect x="190.0" y="388.0" width="100.0" height="100.0" rx="0.0" fill="#2d6cdf" stroke="#d7e0ea" stroke-width="2.00" stroke-linecap="round" stroke-linejoin="round" opacity="0.190" />
<rect x="290.0" y="388.0" width="100.0" height="100.0" rx="0.0" fill="#2d6cdf" stroke="#d7e0ea" stroke-width="2.00" stroke-linecap="round" stroke-linejoin="round" opacity="0.230" />
<rect x="390.0" y="388.0" width="100.0" height="100.0" rx="0.0" fill="#2d6cdf" stroke="#d7e0ea" stroke-width="2.00" stroke-linecap="round" stroke-linejoin="round" opacity="0.274" />
<rect x="490.0" y="388.0" width="100.0" height="100.0" rx="0.0" fill="#2d6cdf" stroke="#d7e0ea" stroke-width="2.00" stroke-linecap="round" stroke-linejoin="round" opacity="0.314" />
<rect x="190.0" y="488.0" width="100.0" height="100.0" rx="0.0" fill="#2d6cdf" stroke="#d7e0ea" stroke-width="2.00" stroke-linecap="round" stroke-linejoin="round" opacity="0.210" />
<rect x="290.0" y="488.0" width="100.0" height="100.0" rx="0.0" fill="#2d6cdf" stroke="#d7e0ea" stroke-width="2.00" stroke-linecap="round" stroke-linejoin="round" opacity="0.258" />
<rect x="390.0" y="488.0" width="100.0" height="100.0" rx="0.0" fill="#2d6cdf" stroke="#d7e0ea" stroke-width="2.00" stroke-linecap="round" stroke-linejoin="round" opacity="0.336" />
<rect x="490.0" y="488.0" width="100.0" height="100.0" rx="0.0" fill="#128b82" stroke="#d7e0ea" stroke-width="2.00" stroke-linecap="round" stroke-linejoin="round" opacity="0.375" />
<rect x="190.0" y="588.0" width="100.0" height="100.0" rx="0.0" fill="#2d6cdf" stroke="#d7e0ea" stroke-width="2.00" stroke-linecap="round" stroke-linejoin="round" opacity="0.241" />
<rect x="290.0" y="588.0" width="100.0" height="100.0" rx="0.0" fill="#2d6cdf" stroke="#d7e0ea" stroke-width="2.00" stroke-linecap="round" stroke-linejoin="round" opacity="0.291" />
<rect x="390.0" y="588.0" width="100.0" height="100.0" rx="0.0" fill="#128b82" stroke="#d7e0ea" stroke-width="2.00" stroke-linecap="round" stroke-linejoin="round" opacity="0.353" />
<rect x="490.0" y="588.0" width="100.0" height="100.0" rx="0.0" fill="#128b82" stroke="#d7e0ea" stroke-width="2.00" stroke-linecap="round" stroke-linejoin="round" opacity="0.420" />
<line x1="190.0" y1="288.0" x2="590.0" y2="288.0" fill="none" stroke="#182232" stroke-width="2.00" stroke-linecap="round" stroke-linejoin="round" opacity="0.550" />
<line x1="190.0" y1="288.0" x2="190.0" y2="688.0" fill="none" stroke="#182232" stroke-width="2.00" stroke-linecap="round" stroke-linejoin="round" opacity="0.550" />
<line x1="190.0" y1="388.0" x2="590.0" y2="388.0" fill="none" stroke="#182232" stroke-width="2.00" stroke-linecap="round" stroke-linejoin="round" opacity="0.550" />
<line x1="290.0" y1="288.0" x2="290.0" y2="688.0" fill="none" stroke="#182232" stroke-width="2.00" stroke-linecap="round" stroke-linejoin="round" opacity="0.550" />
<line x1="190.0" y1="488.0" x2="590.0" y2="488.0" fill="none" stroke="#182232" stroke-width="2.00" stroke-linecap="round" stroke-linejoin="round" opacity="0.550" />
<line x1="390.0" y1="288.0" x2="390.0" y2="688.0" fill="none" stroke="#182232" stroke-width="2.00" stroke-linecap="round" stroke-linejoin="round" opacity="0.550" />
<line x1="190.0" y1="588.0" x2="590.0" y2="588.0" fill="none" stroke="#182232" stroke-width="2.00" stroke-linecap="round" stroke-linejoin="round" opacity="0.550" />
<line x1="490.0" y1="288.0" x2="490.0" y2="688.0" fill="none" stroke="#182232" stroke-width="2.00" stroke-linecap="round" stroke-linejoin="round" opacity="0.550" />
<line x1="190.0" y1="688.0" x2="590.0" y2="688.0" fill="none" stroke="#182232" stroke-width="2.00" stroke-linecap="round" stroke-linejoin="round" opacity="0.550" />
<line x1="590.0" y1="288.0" x2="590.0" y2="688.0" fill="none" stroke="#182232" stroke-width="2.00" stroke-linecap="round" stroke-linejoin="round" opacity="0.550" />
<line x1="240.0" y1="338.0" x2="268.0" y2="338.0" fill="none" stroke="#182232" stroke-width="4.00" stroke-linecap="round" stroke-linejoin="round" />
<polygon points="268.0,338.0 258.7,343.9 258.7,332.1" fill="#182232" stroke="none" />
<line x1="340.0" y1="338.0" x2="368.0" y2="338.0" fill="none" stroke="#182232" stroke-width="4.00" stroke-linecap="round" stroke-linejoin="round" />
<polygon points="368.0,338.0 358.7,343.9 358.7,332.1" fill="#182232" stroke="none" />
<line x1="440.0" y1="338.0" x2="440.0" y2="366.0" fill="none" stroke="#182232" stroke-width="4.00" stroke-linecap="round" stroke-linejoin="round" />
<polygon points="440.0,366.0 434.1,356.7 445.9,356.7" fill="#182232" stroke="none" />
<line x1="540.0" y1="338.0" x2="540.0" y2="366.0" fill="none" stroke="#182232" stroke-width="4.00" stroke-linecap="round" stroke-linejoin="round" />
<polygon points="540.0,366.0 534.1,356.7 545.9,356.7" fill="#182232" stroke="none" />
<line x1="240.0" y1="438.0" x2="268.0" y2="438.0" fill="none" stroke="#182232" stroke-width="4.00" stroke-linecap="round" stroke-linejoin="round" />
<polygon points="268.0,438.0 258.7,443.9 258.7,432.1" fill="#182232" stroke="none" />
<line x1="340.0" y1="438.0" x2="340.0" y2="466.0" fill="none" stroke="#182232" stroke-width="4.00" stroke-linecap="round" stroke-linejoin="round" />
<polygon points="340.0,466.0 334.1,456.7 345.9,456.7" fill="#182232" stroke="none" />
<line x1="440.0" y1="438.0" x2="440.0" y2="466.0" fill="none" stroke="#182232" stroke-width="4.00" stroke-linecap="round" stroke-linejoin="round" />
<polygon points="440.0,466.0 434.1,456.7 445.9,456.7" fill="#182232" stroke="none" />
<line x1="540.0" y1="438.0" x2="540.0" y2="466.0" fill="none" stroke="#182232" stroke-width="4.00" stroke-linecap="round" stroke-linejoin="round" />
<polygon points="540.0,466.0 534.1,456.7 545.9,456.7" fill="#182232" stroke="none" />
<line x1="240.0" y1="538.0" x2="268.0" y2="538.0" fill="none" stroke="#182232" stroke-width="4.00" stroke-linecap="round" stroke-linejoin="round" />
<polygon points="268.0,538.0 258.7,543.9 258.7,532.1" fill="#182232" stroke="none" />
<line x1="340.0" y1="538.0" x2="368.0" y2="538.0" fill="none" stroke="#182232" stroke-width="4.00" stroke-linecap="round" stroke-linejoin="round" />
<polygon points="368.0,538.0 358.7,543.9 358.7,532.1" fill="#182232" stroke="none" />
<line x1="440.0" y1="538.0" x2="468.0" y2="538.0" fill="none" stroke="#182232" stroke-width="4.00" stroke-linecap="round" stroke-linejoin="round" />
<polygon points="468.0,538.0 458.7,543.9 458.7,532.1" fill="#182232" stroke="none" />
<line x1="540.0" y1="538.0" x2="540.0" y2="566.0" fill="none" stroke="#182232" stroke-width="4.00" stroke-linecap="round" stroke-linejoin="round" />
<polygon points="540.0,566.0 534.1,556.7 545.9,556.7" fill="#182232" stroke="none" />
<line x1="240.0" y1="638.0" x2="268.0" y2="638.0" fill="none" stroke="#182232" stroke-width="4.00" stroke-linecap="round" stroke-linejoin="round" />
<polygon points="268.0,638.0 258.7,643.9 258.7,632.1" fill="#182232" stroke="none" />
<line x1="340.0" y1="638.0" x2="368.0" y2="638.0" fill="none" stroke="#182232" stroke-width="4.00" stroke-linecap="round" stroke-linejoin="round" />
<polygon points="368.0,638.0 358.7,643.9 358.7,632.1" fill="#182232" stroke="none" />
<line x1="440.0" y1="638.0" x2="468.0" y2="638.0" fill="none" stroke="#182232" stroke-width="4.00" stroke-linecap="round" stroke-linejoin="round" />
<polygon points="468.0,638.0 458.7,643.9 458.7,632.1" fill="#182232" stroke="none" />
<line x1="540.0" y1="638.0" x2="540.0" y2="610.0" fill="none" stroke="#182232" stroke-width="4.00" stroke-linecap="round" stroke-linejoin="round" />
<polygon points="540.0,610.0 545.9,619.3 534.1,619.3" fill="#182232" stroke="none" />
<circle cx="240.0" cy="638.0" r="24.0" fill="#2d6cdf" stroke="#182232" stroke-width="3.00" stroke-linecap="round" stroke-linejoin="round" />
<line x1="222.0" y1="638.0" x2="258.0" y2="638.0" fill="none" stroke="#ffffff" stroke-width="7.00" stroke-linecap="round" stroke-linejoin="round" />
<line x1="240.0" y1="620.0" x2="240.0" y2="656.0" fill="none" stroke="#ffffff" stroke-width="7.00" stroke-linecap="round" stroke-linejoin="round" />
<rect x="505.0" y="603.0" width="70.0" height="70.0" rx="6.0" fill="#d99722" stroke="#182232" stroke-width="3.00" stroke-linecap="round" stroke-linejoin="round" />
<text x="540.0" y="646.0" font-family="Arial, Helvetica, sans-serif" font-size="30" font-weight="700" text-anchor="middle" fill="#ffffff" opacity="1.000">R</text>
<text x="390.0" y="756.0" font-family="Arial, Helvetica, sans-serif" font-size="20" font-weight="700" text-anchor="middle" fill="#697586" opacity="1.000">compact state-action space</text>
<rect x="830.0" y="256.0" width="580.0" height="450.0" rx="6.0" fill="#ffffff" stroke="#d7e0ea" stroke-width="2.00" stroke-linecap="round" stroke-linejoin="round" />
<text x="866.0" y="312.0" font-family="Arial, Helvetica, sans-serif" font-size="24" font-weight="700" text-anchor="start" fill="#182232" opacity="1.000">Learning loop</text>
<circle cx="910.0" cy="418.0" r="48.0" fill="#2d6cdf" stroke="none" />
<text x="910.0" y="426.0" font-family="Arial, Helvetica, sans-serif" font-size="18" font-weight="700" text-anchor="middle" fill="#ffffff" opacity="1.000">state</text>
<circle cx="1115.0" cy="418.0" r="48.0" fill="#5867d8" stroke="none" />
<text x="1115.0" y="426.0" font-family="Arial, Helvetica, sans-serif" font-size="18" font-weight="700" text-anchor="middle" fill="#ffffff" opacity="1.000">action</text>
<circle cx="1320.0" cy="418.0" r="48.0" fill="#d99722" stroke="none" />
<text x="1320.0" y="426.0" font-family="Arial, Helvetica, sans-serif" font-size="18" font-weight="700" text-anchor="middle" fill="#ffffff" opacity="1.000">reward</text>
<circle cx="1115.0" cy="590.0" r="48.0" fill="#128b82" stroke="none" />
<text x="1115.0" y="598.0" font-family="Arial, Helvetica, sans-serif" font-size="18" font-weight="700" text-anchor="middle" fill="#ffffff" opacity="1.000">policy</text>
<line x1="958.0" y1="418.0" x2="1067.0" y2="418.0" fill="none" stroke="#182232" stroke-width="4.00" stroke-linecap="round" stroke-linejoin="round" />
<polygon points="1067.0,418.0 1055.2,425.5 1055.2,410.5" fill="#182232" stroke="none" />
<line x1="1163.0" y1="418.0" x2="1272.0" y2="418.0" fill="none" stroke="#182232" stroke-width="4.00" stroke-linecap="round" stroke-linejoin="round" />
<polygon points="1272.0,418.0 1260.2,425.5 1260.2,410.5" fill="#182232" stroke="none" />
<line x1="1320.0" y1="466.0" x2="1162.0" y2="574.0" fill="none" stroke="#182232" stroke-width="4.00" stroke-linecap="round" stroke-linejoin="round" />
<polygon points="1162.0,574.0 1167.5,561.1 1176.0,573.5" fill="#182232" stroke="none" />
<line x1="1068.0" y1="574.0" x2="910.0" y2="466.0" fill="none" stroke="#182232" stroke-width="4.00" stroke-linecap="round" stroke-linejoin="round" />
<polygon points="910.0,466.0 924.0,466.5 915.5,478.9" fill="#182232" stroke="none" />
<polyline points="890.0,662.0 970.0,642.0 1050.0,650.0 1130.0,614.0 1210.0,625.0 1358.0,592.0" fill="none" stroke="#128b82" stroke-width="5.00" stroke-linecap="round" stroke-linejoin="round" />
</svg>
